{
	"asset":{
		"generator":"Khronos glTF Blender I/O v5.0.21",
		"version":"2.0"
	},
	"extensionsUsed":[
		"KHR_materials_specular"
	],
	"scene":0,
	"scenes":[
		{
			"name":"Scene",
			"nodes":[
				0
			]
		}
	],
	"nodes":[
		{
			"mesh":0,
			"name":"SPW_Urban_Road Props_Traffic Signal_02",
			"rotation":[
				0.7071068286895752,
				0,
				0,
				0.7071068286895752
			]
		}
	],
	"materials":[
		{
			"doubleSided":true,
			"extensions":{
				"KHR_materials_specular":{
					"specularColorFactor":[
						2.0,
						2.0,
						2.0
					]
				}
			},
			"name":"SPW_Urban_Road Props_01",
			"pbrMetallicRoughness":{
				"baseColorTexture":{
					"index":0
				},
				"roughnessFactor":0.5527864098548889
			}
		}
	],
	"meshes":[
		{
			"name":"Cylinder.039",
			"primitives":[
				{
					"attributes":{
						"POSITION":0,
						"NORMAL":1,
						"TEXCOORD_0":2
					},
					"indices":3,
					"material":0
				}
			]
		}
	],
	"textures":[
		{
			"sampler":0,
			"source":0
		}
	],
	"images":[
		{
			"mimeType":"image/png",
			"name":"SPW_Urban_Road Props_01",
			"uri":"SPW_Urban_Road%20Props_01.png"
		}
	],
	"accessors":[
		{
			"bufferView":0,
			"componentType":5126,
			"count":707,
			"max":[
				0.13729463517665863,
				0.20437729358673096,
				-4.720338256447576e-05
			],
			"min":[
				-4.029261589050293,
				-0.15580303966999054,
				-6.557446002960205
			],
			"type":"VEC3"
		},
		{
			"bufferView":1,
			"componentType":5126,
			"count":707,
			"type":"VEC3"
		},
		{
			"bufferView":2,
			"componentType":5126,
			"count":707,
			"type":"VEC2"
		},
		{
			"bufferView":3,
			"componentType":5123,
			"count":1179,
			"type":"SCALAR"
		}
	],
	"bufferViews":[
		{
			"buffer":0,
			"byteLength":8484,
			"byteOffset":0,
			"target":34962
		},
		{
			"buffer":0,
			"byteLength":8484,
			"byteOffset":8484,
			"target":34962
		},
		{
			"buffer":0,
			"byteLength":5656,
			"byteOffset":16968,
			"target":34962
		},
		{
			"buffer":0,
			"byteLength":2358,
			"byteOffset":22624,
			"target":34963
		}
	],
	"samplers":[
		{
			"magFilter":9729,
			"minFilter":9987
		}
	],
	"buffers":[
		{
			"byteLength":24984,
			"uri":"SPW_Urban_Road_Props_Traffic_Signal_02.bin"
		}
	]
}
