{
	"asset":{
		"generator":"Khronos glTF Blender I/O v5.0.21",
		"version":"2.0"
	},
	"extensionsUsed":[
		"KHR_materials_specular"
	],
	"scene":0,
	"scenes":[
		{
			"name":"Scene",
			"nodes":[
				0
			]
		}
	],
	"nodes":[
		{
			"mesh":0,
			"name":"SPB_School",
			"rotation":[
				0.7071068286895752,
				0,
				0,
				0.7071068286895752
			]
		}
	],
	"materials":[
		{
			"doubleSided":true,
			"extensions":{
				"KHR_materials_specular":{
					"specularColorFactor":[
						0.4000000059604645,
						0.4000000059604645,
						0.4000000059604645
					]
				}
			},
			"name":"SPB_School",
			"pbrMetallicRoughness":{
				"baseColorTexture":{
					"index":0
				},
				"metallicFactor":0,
				"roughnessFactor":0.5527864098548889
			}
		}
	],
	"meshes":[
		{
			"name":"Cube.079",
			"primitives":[
				{
					"attributes":{
						"POSITION":0,
						"NORMAL":1,
						"TEXCOORD_0":2
					},
					"indices":3,
					"material":0
				}
			]
		}
	],
	"textures":[
		{
			"sampler":0,
			"source":0
		}
	],
	"images":[
		{
			"mimeType":"image/png",
			"name":"SPB_School",
			"uri":"SPB_School.png"
		}
	],
	"accessors":[
		{
			"bufferView":0,
			"componentType":5126,
			"count":4627,
			"max":[
				18.173673629760742,
				9.516443252563477,
				3.6926081747878925e-07
			],
			"min":[
				-18.173673629760742,
				-8.637177467346191,
				-14.26456069946289
			],
			"type":"VEC3"
		},
		{
			"bufferView":1,
			"componentType":5126,
			"count":4627,
			"type":"VEC3"
		},
		{
			"bufferView":2,
			"componentType":5126,
			"count":4627,
			"type":"VEC2"
		},
		{
			"bufferView":3,
			"componentType":5123,
			"count":7608,
			"type":"SCALAR"
		}
	],
	"bufferViews":[
		{
			"buffer":0,
			"byteLength":55524,
			"byteOffset":0,
			"target":34962
		},
		{
			"buffer":0,
			"byteLength":55524,
			"byteOffset":55524,
			"target":34962
		},
		{
			"buffer":0,
			"byteLength":37016,
			"byteOffset":111048,
			"target":34962
		},
		{
			"buffer":0,
			"byteLength":15216,
			"byteOffset":148064,
			"target":34963
		}
	],
	"samplers":[
		{
			"magFilter":9729,
			"minFilter":9987
		}
	],
	"buffers":[
		{
			"byteLength":163280,
			"uri":"SPB_School.bin"
		}
	]
}
