{
	"asset":{
		"generator":"Khronos glTF Blender I/O v5.1.18",
		"version":"2.0"
	},
	"extensionsUsed":[
		"KHR_materials_specular"
	],
	"scene":0,
	"scenes":[
		{
			"name":"Scene",
			"nodes":[
				0,
				1,
				2
			]
		}
	],
	"nodes":[
		{
			"mesh":0,
			"name":"Flower01",
			"rotation":[
				0.7071068286895752,
				0,
				0,
				0.7071068286895752
			],
			"scale":[
				7.36028528213501,
				1,
				7.36028528213501
			],
			"translation":[
				0.14795131981372833,
				0.0921732634305954,
				0.06187516450881958
			]
		},
		{
			"mesh":1,
			"name":"Flower02",
			"rotation":[
				0,
				0.7071068286895752,
				-0.7071068286895752,
				0
			],
			"scale":[
				11.271523475646973,
				4.249930381774902,
				7.952272891998291
			],
			"translation":[
				0.9219238758087158,
				0.1708291471004486,
				0.6125897169113159
			]
		},
		{
			"mesh":2,
			"name":"Flower03",
			"rotation":[
				0.7071068286895752,
				0,
				0,
				0.7071068286895752
			],
			"scale":[
				10.922409057617188,
				2.333026647567749,
				10.922409057617188
			],
			"translation":[
				-0.5226366519927979,
				0.1318717896938324,
				-0.36293935775756836
			]
		}
	],
	"materials":[
		{
			"doubleSided":true,
			"extensions":{
				"KHR_materials_specular":{
					"specularFactor":0
				}
			},
			"name":"FlowerStalk",
			"pbrMetallicRoughness":{
				"baseColorFactor":[
					0.4746231138706207,
					0.8000000715255737,
					0.22091935575008392,
					1
				],
				"metallicFactor":0,
				"roughnessFactor":0.690034806728363
			}
		},
		{
			"doubleSided":true,
			"extensions":{
				"KHR_materials_specular":{
					"specularFactor":0
				}
			},
			"name":"Blossoms01",
			"pbrMetallicRoughness":{
				"metallicFactor":0,
				"roughnessFactor":0.690034806728363
			}
		},
		{
			"doubleSided":true,
			"extensions":{
				"KHR_materials_specular":{
					"specularFactor":0
				}
			},
			"name":"Core01",
			"pbrMetallicRoughness":{
				"baseColorFactor":[
					0.8000000715255737,
					0.654524564743042,
					0.15828150510787964,
					1
				],
				"metallicFactor":0,
				"roughnessFactor":0.690034806728363
			}
		},
		{
			"doubleSided":true,
			"extensions":{
				"KHR_materials_specular":{
					"specularFactor":0
				}
			},
			"name":"FlowerStalk.001",
			"pbrMetallicRoughness":{
				"baseColorFactor":[
					0.4746231138706207,
					0.8000000715255737,
					0.22091935575008392,
					1
				],
				"metallicFactor":0,
				"roughnessFactor":0.690034806728363
			}
		},
		{
			"doubleSided":true,
			"name":"Blossoms02",
			"pbrMetallicRoughness":{
				"baseColorFactor":[
					0.8000000715255737,
					0.731372594833374,
					0.1603364795446396,
					1
				],
				"metallicFactor":0,
				"roughnessFactor":0.690034806728363
			}
		},
		{
			"doubleSided":true,
			"extensions":{
				"KHR_materials_specular":{
					"specularFactor":0
				}
			},
			"name":"Core02",
			"pbrMetallicRoughness":{
				"baseColorFactor":[
					0.8000000715255737,
					0.5938764214515686,
					0.042737849056720734,
					1
				],
				"metallicFactor":0,
				"roughnessFactor":0.690034806728363
			}
		},
		{
			"doubleSided":true,
			"extensions":{
				"KHR_materials_specular":{
					"specularFactor":0
				}
			},
			"name":"FlowerStalk.002",
			"pbrMetallicRoughness":{
				"baseColorFactor":[
					0.4746231138706207,
					0.8000000715255737,
					0.22091935575008392,
					1
				],
				"metallicFactor":0,
				"roughnessFactor":0.690034806728363
			}
		},
		{
			"doubleSided":true,
			"extensions":{
				"KHR_materials_specular":{
					"specularFactor":0
				}
			},
			"name":"Blossoms03",
			"pbrMetallicRoughness":{
				"baseColorFactor":[
					0.32480067014694214,
					0.023386413231492043,
					0.8000000715255737,
					1
				],
				"metallicFactor":0,
				"roughnessFactor":0.690034806728363
			}
		},
		{
			"doubleSided":true,
			"extensions":{
				"KHR_materials_specular":{
					"specularFactor":0
				}
			},
			"name":"Core03",
			"pbrMetallicRoughness":{
				"baseColorFactor":[
					0.8000000715255737,
					0.719587504863739,
					0.2568436563014984,
					1
				],
				"metallicFactor":0,
				"roughnessFactor":0.690034806728363
			}
		}
	],
	"meshes":[
		{
			"name":"Cylinder",
			"primitives":[
				{
					"attributes":{
						"POSITION":0,
						"NORMAL":1
					},
					"indices":2,
					"material":0
				},
				{
					"attributes":{
						"POSITION":3,
						"NORMAL":4
					},
					"indices":5,
					"material":1
				},
				{
					"attributes":{
						"POSITION":6,
						"NORMAL":7
					},
					"indices":8,
					"material":2
				}
			]
		},
		{
			"name":"Cylinder.003",
			"primitives":[
				{
					"attributes":{
						"POSITION":9,
						"NORMAL":10
					},
					"indices":11,
					"material":3
				},
				{
					"attributes":{
						"POSITION":12,
						"NORMAL":13
					},
					"indices":14,
					"material":4
				},
				{
					"attributes":{
						"POSITION":15,
						"NORMAL":16
					},
					"indices":17,
					"material":5
				}
			]
		},
		{
			"name":"Cylinder.005",
			"primitives":[
				{
					"attributes":{
						"POSITION":18,
						"NORMAL":19
					},
					"indices":20,
					"material":6
				},
				{
					"attributes":{
						"POSITION":21,
						"NORMAL":22
					},
					"indices":23,
					"material":7
				},
				{
					"attributes":{
						"POSITION":24,
						"NORMAL":25
					},
					"indices":26,
					"material":8
				}
			]
		}
	],
	"accessors":[
		{
			"bufferView":0,
			"componentType":5126,
			"count":492,
			"max":[
				0.06104183569550514,
				0.05040006339550018,
				0.016295554116368294
			],
			"min":[
				-0.04831250011920929,
				-0.046203967183828354,
				-0.2664862275123596
			],
			"type":"VEC3"
		},
		{
			"bufferView":1,
			"componentType":5126,
			"count":492,
			"type":"VEC3"
		},
		{
			"bufferView":2,
			"componentType":5123,
			"count":648,
			"type":"SCALAR"
		},
		{
			"bufferView":3,
			"componentType":5126,
			"count":195,
			"max":[
				0.08497351408004761,
				0.06989660114049911,
				-0.2036801278591156
			],
			"min":[
				-0.06720411777496338,
				-0.07360640168190002,
				-0.2748830318450928
			],
			"type":"VEC3"
		},
		{
			"bufferView":4,
			"componentType":5126,
			"count":195,
			"type":"VEC3"
		},
		{
			"bufferView":5,
			"componentType":5123,
			"count":351,
			"type":"SCALAR"
		},
		{
			"bufferView":6,
			"componentType":5126,
			"count":420,
			"max":[
				0.05915209278464317,
				0.04169340059161186,
				-0.20347118377685547
			],
			"min":[
				-0.03725079447031021,
				-0.04047972336411476,
				-0.27354511618614197
			],
			"type":"VEC3"
		},
		{
			"bufferView":7,
			"componentType":5126,
			"count":420,
			"type":"VEC3"
		},
		{
			"bufferView":8,
			"componentType":5123,
			"count":540,
			"type":"SCALAR"
		},
		{
			"bufferView":9,
			"componentType":5126,
			"count":432,
			"max":[
				0.06122342869639397,
				0.06442368030548096,
				0.019358979538083076
			],
			"min":[
				-0.05462170019745827,
				-0.0430777370929718,
				-0.1624627262353897
			],
			"type":"VEC3"
		},
		{
			"bufferView":10,
			"componentType":5126,
			"count":432,
			"type":"VEC3"
		},
		{
			"bufferView":11,
			"componentType":5123,
			"count":468,
			"type":"SCALAR"
		},
		{
			"bufferView":12,
			"componentType":5126,
			"count":288,
			"max":[
				0.08483222126960754,
				0.08749262988567352,
				-0.12777945399284363
			],
			"min":[
				-0.07275227457284927,
				-0.06304085999727249,
				-0.1717478185892105
			],
			"type":"VEC3"
		},
		{
			"bufferView":13,
			"componentType":5126,
			"count":288,
			"type":"VEC3"
		},
		{
			"bufferView":14,
			"componentType":5123,
			"count":576,
			"type":"SCALAR"
		},
		{
			"bufferView":15,
			"componentType":5126,
			"count":360,
			"max":[
				0.058793891221284866,
				0.06008157506585121,
				-0.13330179452896118
			],
			"min":[
				-0.04961029440164566,
				-0.040742456912994385,
				-0.16513551771640778
			],
			"type":"VEC3"
		},
		{
			"bufferView":16,
			"componentType":5126,
			"count":360,
			"type":"VEC3"
		},
		{
			"bufferView":17,
			"componentType":5123,
			"count":360,
			"type":"SCALAR"
		},
		{
			"bufferView":18,
			"componentType":5126,
			"count":432,
			"max":[
				0.06332609057426453,
				0.06631078571081161,
				0.019358979538083076
			],
			"min":[
				-0.06527931243181229,
				-0.04417857527732849,
				-0.13706374168395996
			],
			"type":"VEC3"
		},
		{
			"bufferView":19,
			"componentType":5126,
			"count":432,
			"type":"VEC3"
		},
		{
			"bufferView":20,
			"componentType":5123,
			"count":468,
			"type":"SCALAR"
		},
		{
			"bufferView":21,
			"componentType":5126,
			"count":240,
			"max":[
				0.08451569080352783,
				0.08386754244565964,
				-0.11611833423376083
			],
			"min":[
				-0.07616393268108368,
				-0.06214519590139389,
				-0.14790530502796173
			],
			"type":"VEC3"
		},
		{
			"bufferView":22,
			"componentType":5126,
			"count":240,
			"type":"VEC3"
		},
		{
			"bufferView":23,
			"componentType":5123,
			"count":360,
			"type":"SCALAR"
		},
		{
			"bufferView":24,
			"componentType":5126,
			"count":360,
			"max":[
				0.0633576512336731,
				0.06393568962812424,
				-0.11887704581022263
			],
			"min":[
				-0.05742184817790985,
				-0.042710527777671814,
				-0.1430767923593521
			],
			"type":"VEC3"
		},
		{
			"bufferView":25,
			"componentType":5126,
			"count":360,
			"type":"VEC3"
		},
		{
			"bufferView":26,
			"componentType":5123,
			"count":360,
			"type":"SCALAR"
		}
	],
	"bufferViews":[
		{
			"buffer":0,
			"byteLength":5904,
			"byteOffset":0,
			"target":34962
		},
		{
			"buffer":0,
			"byteLength":5904,
			"byteOffset":5904,
			"target":34962
		},
		{
			"buffer":0,
			"byteLength":1296,
			"byteOffset":11808,
			"target":34963
		},
		{
			"buffer":0,
			"byteLength":2340,
			"byteOffset":13104,
			"target":34962
		},
		{
			"buffer":0,
			"byteLength":2340,
			"byteOffset":15444,
			"target":34962
		},
		{
			"buffer":0,
			"byteLength":702,
			"byteOffset":17784,
			"target":34963
		},
		{
			"buffer":0,
			"byteLength":5040,
			"byteOffset":18488,
			"target":34962
		},
		{
			"buffer":0,
			"byteLength":5040,
			"byteOffset":23528,
			"target":34962
		},
		{
			"buffer":0,
			"byteLength":1080,
			"byteOffset":28568,
			"target":34963
		},
		{
			"buffer":0,
			"byteLength":5184,
			"byteOffset":29648,
			"target":34962
		},
		{
			"buffer":0,
			"byteLength":5184,
			"byteOffset":34832,
			"target":34962
		},
		{
			"buffer":0,
			"byteLength":936,
			"byteOffset":40016,
			"target":34963
		},
		{
			"buffer":0,
			"byteLength":3456,
			"byteOffset":40952,
			"target":34962
		},
		{
			"buffer":0,
			"byteLength":3456,
			"byteOffset":44408,
			"target":34962
		},
		{
			"buffer":0,
			"byteLength":1152,
			"byteOffset":47864,
			"target":34963
		},
		{
			"buffer":0,
			"byteLength":4320,
			"byteOffset":49016,
			"target":34962
		},
		{
			"buffer":0,
			"byteLength":4320,
			"byteOffset":53336,
			"target":34962
		},
		{
			"buffer":0,
			"byteLength":720,
			"byteOffset":57656,
			"target":34963
		},
		{
			"buffer":0,
			"byteLength":5184,
			"byteOffset":58376,
			"target":34962
		},
		{
			"buffer":0,
			"byteLength":5184,
			"byteOffset":63560,
			"target":34962
		},
		{
			"buffer":0,
			"byteLength":936,
			"byteOffset":68744,
			"target":34963
		},
		{
			"buffer":0,
			"byteLength":2880,
			"byteOffset":69680,
			"target":34962
		},
		{
			"buffer":0,
			"byteLength":2880,
			"byteOffset":72560,
			"target":34962
		},
		{
			"buffer":0,
			"byteLength":720,
			"byteOffset":75440,
			"target":34963
		},
		{
			"buffer":0,
			"byteLength":4320,
			"byteOffset":76160,
			"target":34962
		},
		{
			"buffer":0,
			"byteLength":4320,
			"byteOffset":80480,
			"target":34962
		},
		{
			"buffer":0,
			"byteLength":720,
			"byteOffset":84800,
			"target":34963
		}
	],
	"buffers":[
		{
			"byteLength":85520,
			"uri":"SPW_Natures_Flower.bin"
		}
	]
}
