{
	"asset":{
		"generator":"Khronos glTF Blender I/O v5.0.21",
		"version":"2.0"
	},
	"extensionsUsed":[
		"KHR_materials_specular"
	],
	"scene":0,
	"scenes":[
		{
			"name":"Scene",
			"nodes":[
				0
			]
		}
	],
	"nodes":[
		{
			"mesh":0,
			"name":"SPW_Urban_Road Props_Traffic Signal_01",
			"rotation":[
				0.7071068286895752,
				0,
				0,
				0.7071068286895752
			]
		}
	],
	"materials":[
		{
			"doubleSided":true,
			"extensions":{
				"KHR_materials_specular":{
					"specularColorFactor":[
						0.4000000059604645,
						0.4000000059604645,
						0.4000000059604645
					]
				}
			},
			"name":"SPW_Urban_Road Props_01",
			"pbrMetallicRoughness":{
				"baseColorTexture":{
					"index":0
				},
				"metallicFactor":0,
				"roughnessFactor":0.5527864098548889
			}
		}
	],
	"meshes":[
		{
			"name":"Cylinder.097",
			"primitives":[
				{
					"attributes":{
						"POSITION":0,
						"NORMAL":1,
						"TEXCOORD_0":2
					},
					"indices":3,
					"material":0
				}
			]
		}
	],
	"textures":[
		{
			"sampler":0,
			"source":0
		}
	],
	"images":[
		{
			"mimeType":"image/png",
			"name":"SPW_Urban_Road Props_01",
			"uri":"SPW_Urban_Road%20Props_01.png"
		}
	],
	"accessors":[
		{
			"bufferView":0,
			"componentType":5126,
			"count":695,
			"max":[
				0.23951154947280884,
				0.21746890246868134,
				-1.0889083569054492e-05
			],
			"min":[
				-0.2395123392343521,
				-0.12160517275333405,
				-4.533544063568115
			],
			"type":"VEC3"
		},
		{
			"bufferView":1,
			"componentType":5126,
			"count":695,
			"type":"VEC3"
		},
		{
			"bufferView":2,
			"componentType":5126,
			"count":695,
			"type":"VEC2"
		},
		{
			"bufferView":3,
			"componentType":5123,
			"count":1143,
			"type":"SCALAR"
		}
	],
	"bufferViews":[
		{
			"buffer":0,
			"byteLength":8340,
			"byteOffset":0,
			"target":34962
		},
		{
			"buffer":0,
			"byteLength":8340,
			"byteOffset":8340,
			"target":34962
		},
		{
			"buffer":0,
			"byteLength":5560,
			"byteOffset":16680,
			"target":34962
		},
		{
			"buffer":0,
			"byteLength":2286,
			"byteOffset":22240,
			"target":34963
		}
	],
	"samplers":[
		{
			"magFilter":9729,
			"minFilter":9987
		}
	],
	"buffers":[
		{
			"byteLength":24528,
			"uri":"SPW_Urban_Road_Props_Traffic_Signal_01.bin"
		}
	]
}
