{
	"asset":{
		"generator":"Khronos glTF Blender I/O v5.0.21",
		"version":"2.0"
	},
	"extensionsUsed":[
		"KHR_materials_specular"
	],
	"scene":0,
	"scenes":[
		{
			"name":"Scene",
			"nodes":[
				0,
				1,
				2,
				3,
				4,
				5,
				6,
				7,
				8,
				9
			]
		}
	],
	"nodes":[
		{
			"mesh":0,
			"name":"SPW_Terrain_Water",
			"rotation":[
				0.7071068286895752,
				0,
				0,
				0.7071068286895752
			],
			"scale":[
				5.986804485321045,
				13,
				1.1442674398422241
			],
			"translation":[
				-45.420780181884766,
				-9.184110641479492,
				-20.0698184967041
			]
		},
		{
			"mesh":1,
			"name":"SPW_Vehicle_Water_Passenger Ship_Color01.003",
			"rotation":[
				0.7071068286895752,
				0,
				0,
				0.7071068286895752
			],
			"translation":[
				-83.68696594238281,
				-8.676712036132812,
				-50.87898254394531
			]
		},
		{
			"mesh":2,
			"name":"SPW_Vehicle_Water_Boat_Color03.001",
			"rotation":[
				0.5,
				-0.5,
				0.5,
				0.5
			],
			"scale":[
				2,
				2,
				2
			],
			"translation":[
				-47.47340774536133,
				-9.016313552856445,
				49.9284782409668
			]
		},
		{
			"mesh":3,
			"name":"SPW_Vehicle_Water_Boat_Color02.001",
			"rotation":[
				0.5,
				0.5,
				-0.5,
				0.5
			],
			"scale":[
				1.9998395442962646,
				2,
				2
			],
			"translation":[
				-50.87007522583008,
				-9.058252334594727,
				82.91255187988281
			]
		},
		{
			"mesh":4,
			"name":"SPW_Vehicle_Water_Boat_Color01.001",
			"rotation":[
				0.5,
				0.5,
				-0.5,
				0.5
			],
			"scale":[
				2,
				2,
				2
			],
			"translation":[
				-50.72114944458008,
				-9.058252334594727,
				93.25665283203125
			]
		},
		{
			"mesh":5,
			"name":"SPW_Terrain_Sand_Plan A_Out_mid.004",
			"rotation":[
				0.5,
				0.5,
				-0.5,
				0.5
			],
			"scale":[
				13,
				3,
				3
			],
			"translation":[
				-6.216938018798828,
				-9.176712036132812,
				-20.071517944335938
			]
		},
		{
			"mesh":6,
			"name":"SPW_Medieval_Props_Stand_01.004",
			"rotation":[
				0.5,
				-0.5,
				0.5,
				0.5
			],
			"scale":[
				2,
				2,
				2
			],
			"translation":[
				-35.62086868286133,
				-8.676712036132812,
				28.676864624023438
			]
		},
		{
			"mesh":7,
			"name":"SPW_Medieval_Props_Stand_01.003",
			"rotation":[
				0.5,
				-0.5,
				0.5,
				0.5
			],
			"scale":[
				2,
				2,
				2
			],
			"translation":[
				-16.620868682861328,
				-8.676712036132812,
				68.67686462402344
			]
		},
		{
			"mesh":8,
			"name":"SPW_Medieval_Props_Stand_01.002",
			"rotation":[
				0.5,
				-0.5,
				0.5,
				0.5
			],
			"scale":[
				2,
				2,
				2
			],
			"translation":[
				-35.62086868286133,
				-8.676712036132812,
				68.67686462402344
			]
		},
		{
			"mesh":9,
			"name":"SPW_Medieval_Props_Stand_01.001",
			"rotation":[
				0.5,
				-0.5,
				0.5,
				0.5
			],
			"scale":[
				2,
				2,
				2
			],
			"translation":[
				-16.620868682861328,
				-8.676712036132812,
				28.676864624023438
			]
		}
	],
	"materials":[
		{
			"doubleSided":true,
			"extensions":{
				"KHR_materials_specular":{
					"specularColorFactor":[
						0.4000000059604645,
						0.4000000059604645,
						0.4000000059604645
					]
				}
			},
			"name":"SPW_Natures_02",
			"pbrMetallicRoughness":{
				"baseColorTexture":{
					"index":0
				},
				"metallicFactor":0,
				"roughnessFactor":0.5527864098548889
			}
		},
		{
			"alphaMode":"BLEND",
			"doubleSided":true,
			"name":"SPW_Vehicle_Water_Passenger Ship_Color01",
			"pbrMetallicRoughness":{
				"baseColorTexture":{
					"index":1
				},
				"metallicFactor":0,
				"roughnessFactor":0.690034806728363
			}
		},
		{
			"alphaMode":"BLEND",
			"doubleSided":true,
			"name":"SPW_Vehicle_Water_Boat_Color03",
			"pbrMetallicRoughness":{
				"baseColorTexture":{
					"index":2
				},
				"metallicFactor":0,
				"roughnessFactor":0.690034806728363
			}
		},
		{
			"alphaMode":"BLEND",
			"doubleSided":true,
			"name":"SPW_Vehicle_Water_Boat_Color02",
			"pbrMetallicRoughness":{
				"baseColorTexture":{
					"index":3
				},
				"metallicFactor":0,
				"roughnessFactor":0.690034806728363
			}
		},
		{
			"alphaMode":"BLEND",
			"doubleSided":true,
			"name":"SPW_Vehicle_Water_Boat_Color01",
			"pbrMetallicRoughness":{
				"baseColorTexture":{
					"index":4
				},
				"metallicFactor":0,
				"roughnessFactor":0.690034806728363
			}
		},
		{
			"alphaMode":"BLEND",
			"doubleSided":true,
			"name":"SPW_Natures_02.006",
			"pbrMetallicRoughness":{
				"baseColorTexture":{
					"index":5
				},
				"metallicFactor":0,
				"roughnessFactor":0.690034806728363
			}
		},
		{
			"alphaMode":"BLEND",
			"doubleSided":true,
			"name":"SPW_Medieval",
			"pbrMetallicRoughness":{
				"baseColorTexture":{
					"index":6
				},
				"metallicFactor":0,
				"roughnessFactor":0.690034806728363
			}
		}
	],
	"meshes":[
		{
			"name":"Plane.009",
			"primitives":[
				{
					"attributes":{
						"POSITION":0,
						"NORMAL":1,
						"TEXCOORD_0":2
					},
					"indices":3,
					"material":0
				}
			]
		},
		{
			"name":"Cube.5330",
			"primitives":[
				{
					"attributes":{
						"POSITION":4,
						"NORMAL":5,
						"TEXCOORD_0":6
					},
					"indices":7,
					"material":1
				}
			]
		},
		{
			"name":"Cube.3348",
			"primitives":[
				{
					"attributes":{
						"POSITION":8,
						"NORMAL":9,
						"TEXCOORD_0":10
					},
					"indices":11,
					"material":2
				}
			]
		},
		{
			"name":"Cube.3349",
			"primitives":[
				{
					"attributes":{
						"POSITION":12,
						"NORMAL":13,
						"TEXCOORD_0":14
					},
					"indices":11,
					"material":3
				}
			]
		},
		{
			"name":"Cube.3350",
			"primitives":[
				{
					"attributes":{
						"POSITION":15,
						"NORMAL":16,
						"TEXCOORD_0":17
					},
					"indices":11,
					"material":4
				}
			]
		},
		{
			"name":"Plane.2694",
			"primitives":[
				{
					"attributes":{
						"POSITION":18,
						"NORMAL":19,
						"TEXCOORD_0":20
					},
					"indices":3,
					"material":5
				}
			]
		},
		{
			"name":"Cube.3347",
			"primitives":[
				{
					"attributes":{
						"POSITION":21,
						"NORMAL":22,
						"TEXCOORD_0":23
					},
					"indices":24,
					"material":6
				}
			]
		},
		{
			"name":"Cube.3345",
			"primitives":[
				{
					"attributes":{
						"POSITION":25,
						"NORMAL":26,
						"TEXCOORD_0":27
					},
					"indices":24,
					"material":6
				}
			]
		},
		{
			"name":"Cube.3344",
			"primitives":[
				{
					"attributes":{
						"POSITION":28,
						"NORMAL":29,
						"TEXCOORD_0":30
					},
					"indices":24,
					"material":6
				}
			]
		},
		{
			"name":"Cube.3346",
			"primitives":[
				{
					"attributes":{
						"POSITION":31,
						"NORMAL":32,
						"TEXCOORD_0":33
					},
					"indices":24,
					"material":6
				}
			]
		}
	],
	"textures":[
		{
			"sampler":0,
			"source":0
		},
		{
			"sampler":0,
			"source":1
		},
		{
			"sampler":0,
			"source":2
		},
		{
			"sampler":0,
			"source":3
		},
		{
			"sampler":0,
			"source":4
		},
		{
			"sampler":0,
			"source":0
		},
		{
			"sampler":0,
			"source":5
		}
	],
	"images":[
		{
			"mimeType":"image/png",
			"name":"SPW_Natures_02",
			"uri":"SPW_Natures_02.png"
		},
		{
			"mimeType":"image/png",
			"name":"SPW_Vehicle_Water_Passenger Ship_Color01",
			"uri":"SPW_Vehicle_Water_Passenger%20Ship_Color01.png"
		},
		{
			"mimeType":"image/png",
			"name":"SPW_Vehicle_Water_Boat_Color03",
			"uri":"SPW_Vehicle_Water_Boat_Color03.png"
		},
		{
			"mimeType":"image/png",
			"name":"SPW_Vehicle_Water_Boat_Color02",
			"uri":"SPW_Vehicle_Water_Boat_Color02.png"
		},
		{
			"mimeType":"image/png",
			"name":"SPW_Vehicle_Water_Boat_Color01",
			"uri":"SPW_Vehicle_Water_Boat_Color01.png"
		},
		{
			"mimeType":"image/png",
			"name":"SPW_Medieval",
			"uri":"SPW_Medieval.png"
		}
	],
	"accessors":[
		{
			"bufferView":0,
			"componentType":5126,
			"count":4,
			"max":[
				10,
				10,
				4.37113897078234e-07
			],
			"min":[
				-10,
				-10,
				-4.37113897078234e-07
			],
			"type":"VEC3"
		},
		{
			"bufferView":1,
			"componentType":5126,
			"count":4,
			"type":"VEC3"
		},
		{
			"bufferView":2,
			"componentType":5126,
			"count":4,
			"type":"VEC2"
		},
		{
			"bufferView":3,
			"componentType":5123,
			"count":6,
			"type":"SCALAR"
		},
		{
			"bufferView":4,
			"componentType":5126,
			"count":500,
			"max":[
				6.000000953674316,
				24.621936798095703,
				6.940521757314855e-07
			],
			"min":[
				-6.000000953674316,
				-17.378063201904297,
				-15.936599731445312
			],
			"type":"VEC3"
		},
		{
			"bufferView":5,
			"componentType":5126,
			"count":500,
			"type":"VEC3"
		},
		{
			"bufferView":6,
			"componentType":5126,
			"count":500,
			"type":"VEC2"
		},
		{
			"bufferView":7,
			"componentType":5123,
			"count":852,
			"type":"SCALAR"
		},
		{
			"bufferView":8,
			"componentType":5126,
			"count":601,
			"max":[
				1.4394043684005737,
				4.809136867523193,
				-2.1338462829589844e-05
			],
			"min":[
				-1.4498274326324463,
				-3.2256767749786377,
				-3.446197032928467
			],
			"type":"VEC3"
		},
		{
			"bufferView":9,
			"componentType":5126,
			"count":601,
			"type":"VEC3"
		},
		{
			"bufferView":10,
			"componentType":5126,
			"count":601,
			"type":"VEC2"
		},
		{
			"bufferView":11,
			"componentType":5123,
			"count":1038,
			"type":"SCALAR"
		},
		{
			"bufferView":12,
			"componentType":5126,
			"count":601,
			"max":[
				1.4394043684005737,
				4.809136867523193,
				-2.1338462829589844e-05
			],
			"min":[
				-1.4498274326324463,
				-3.2256767749786377,
				-3.446197032928467
			],
			"type":"VEC3"
		},
		{
			"bufferView":13,
			"componentType":5126,
			"count":601,
			"type":"VEC3"
		},
		{
			"bufferView":14,
			"componentType":5126,
			"count":601,
			"type":"VEC2"
		},
		{
			"bufferView":15,
			"componentType":5126,
			"count":601,
			"max":[
				1.4394043684005737,
				4.809136867523193,
				-2.1338462829589844e-05
			],
			"min":[
				-1.4498274326324463,
				-3.2256767749786377,
				-3.446197032928467
			],
			"type":"VEC3"
		},
		{
			"bufferView":16,
			"componentType":5126,
			"count":601,
			"type":"VEC3"
		},
		{
			"bufferView":17,
			"componentType":5126,
			"count":601,
			"type":"VEC2"
		},
		{
			"bufferView":18,
			"componentType":5126,
			"count":4,
			"max":[
				9.999999046325684,
				10,
				4.37113897078234e-07
			],
			"min":[
				-10.000000953674316,
				-10,
				-3.500000476837158
			],
			"type":"VEC3"
		},
		{
			"bufferView":19,
			"componentType":5126,
			"count":4,
			"type":"VEC3"
		},
		{
			"bufferView":20,
			"componentType":5126,
			"count":4,
			"type":"VEC2"
		},
		{
			"bufferView":21,
			"componentType":5126,
			"count":768,
			"max":[
				1.999999761581421,
				5.000000476837158,
				6.5566942986095e-09
			],
			"min":[
				-2.0000009536743164,
				-4.999999046325684,
				-4.000000476837158
			],
			"type":"VEC3"
		},
		{
			"bufferView":22,
			"componentType":5126,
			"count":768,
			"type":"VEC3"
		},
		{
			"bufferView":23,
			"componentType":5126,
			"count":768,
			"type":"VEC2"
		},
		{
			"bufferView":24,
			"componentType":5123,
			"count":1152,
			"type":"SCALAR"
		},
		{
			"bufferView":25,
			"componentType":5126,
			"count":768,
			"max":[
				1.999999761581421,
				5.000000476837158,
				6.5566942986095e-09
			],
			"min":[
				-2.0000009536743164,
				-4.999999046325684,
				-4.000000476837158
			],
			"type":"VEC3"
		},
		{
			"bufferView":26,
			"componentType":5126,
			"count":768,
			"type":"VEC3"
		},
		{
			"bufferView":27,
			"componentType":5126,
			"count":768,
			"type":"VEC2"
		},
		{
			"bufferView":28,
			"componentType":5126,
			"count":768,
			"max":[
				1.999999761581421,
				5.000000476837158,
				6.5566942986095e-09
			],
			"min":[
				-2.0000009536743164,
				-4.999999046325684,
				-4.000000476837158
			],
			"type":"VEC3"
		},
		{
			"bufferView":29,
			"componentType":5126,
			"count":768,
			"type":"VEC3"
		},
		{
			"bufferView":30,
			"componentType":5126,
			"count":768,
			"type":"VEC2"
		},
		{
			"bufferView":31,
			"componentType":5126,
			"count":768,
			"max":[
				1.999999761581421,
				5.000000476837158,
				6.5566942986095e-09
			],
			"min":[
				-2.0000009536743164,
				-4.999999046325684,
				-4.000000476837158
			],
			"type":"VEC3"
		},
		{
			"bufferView":32,
			"componentType":5126,
			"count":768,
			"type":"VEC3"
		},
		{
			"bufferView":33,
			"componentType":5126,
			"count":768,
			"type":"VEC2"
		}
	],
	"bufferViews":[
		{
			"buffer":0,
			"byteLength":48,
			"byteOffset":0,
			"target":34962
		},
		{
			"buffer":0,
			"byteLength":48,
			"byteOffset":48,
			"target":34962
		},
		{
			"buffer":0,
			"byteLength":32,
			"byteOffset":96,
			"target":34962
		},
		{
			"buffer":0,
			"byteLength":12,
			"byteOffset":128,
			"target":34963
		},
		{
			"buffer":0,
			"byteLength":6000,
			"byteOffset":140,
			"target":34962
		},
		{
			"buffer":0,
			"byteLength":6000,
			"byteOffset":6140,
			"target":34962
		},
		{
			"buffer":0,
			"byteLength":4000,
			"byteOffset":12140,
			"target":34962
		},
		{
			"buffer":0,
			"byteLength":1704,
			"byteOffset":16140,
			"target":34963
		},
		{
			"buffer":0,
			"byteLength":7212,
			"byteOffset":17844,
			"target":34962
		},
		{
			"buffer":0,
			"byteLength":7212,
			"byteOffset":25056,
			"target":34962
		},
		{
			"buffer":0,
			"byteLength":4808,
			"byteOffset":32268,
			"target":34962
		},
		{
			"buffer":0,
			"byteLength":2076,
			"byteOffset":37076,
			"target":34963
		},
		{
			"buffer":0,
			"byteLength":7212,
			"byteOffset":39152,
			"target":34962
		},
		{
			"buffer":0,
			"byteLength":7212,
			"byteOffset":46364,
			"target":34962
		},
		{
			"buffer":0,
			"byteLength":4808,
			"byteOffset":53576,
			"target":34962
		},
		{
			"buffer":0,
			"byteLength":7212,
			"byteOffset":58384,
			"target":34962
		},
		{
			"buffer":0,
			"byteLength":7212,
			"byteOffset":65596,
			"target":34962
		},
		{
			"buffer":0,
			"byteLength":4808,
			"byteOffset":72808,
			"target":34962
		},
		{
			"buffer":0,
			"byteLength":48,
			"byteOffset":77616,
			"target":34962
		},
		{
			"buffer":0,
			"byteLength":48,
			"byteOffset":77664,
			"target":34962
		},
		{
			"buffer":0,
			"byteLength":32,
			"byteOffset":77712,
			"target":34962
		},
		{
			"buffer":0,
			"byteLength":9216,
			"byteOffset":77744,
			"target":34962
		},
		{
			"buffer":0,
			"byteLength":9216,
			"byteOffset":86960,
			"target":34962
		},
		{
			"buffer":0,
			"byteLength":6144,
			"byteOffset":96176,
			"target":34962
		},
		{
			"buffer":0,
			"byteLength":2304,
			"byteOffset":102320,
			"target":34963
		},
		{
			"buffer":0,
			"byteLength":9216,
			"byteOffset":104624,
			"target":34962
		},
		{
			"buffer":0,
			"byteLength":9216,
			"byteOffset":113840,
			"target":34962
		},
		{
			"buffer":0,
			"byteLength":6144,
			"byteOffset":123056,
			"target":34962
		},
		{
			"buffer":0,
			"byteLength":9216,
			"byteOffset":129200,
			"target":34962
		},
		{
			"buffer":0,
			"byteLength":9216,
			"byteOffset":138416,
			"target":34962
		},
		{
			"buffer":0,
			"byteLength":6144,
			"byteOffset":147632,
			"target":34962
		},
		{
			"buffer":0,
			"byteLength":9216,
			"byteOffset":153776,
			"target":34962
		},
		{
			"buffer":0,
			"byteLength":9216,
			"byteOffset":162992,
			"target":34962
		},
		{
			"buffer":0,
			"byteLength":6144,
			"byteOffset":172208,
			"target":34962
		}
	],
	"samplers":[
		{
			"magFilter":9729,
			"minFilter":9987
		}
	],
	"buffers":[
		{
			"byteLength":178352,
			"uri":"SPW_Nature_Water_Front.bin"
		}
	]
}
