{
	"asset":{
		"generator":"Khronos glTF Blender I/O v5.0.21",
		"version":"2.0"
	},
	"extensionsUsed":[
		"KHR_materials_specular"
	],
	"scene":0,
	"scenes":[
		{
			"name":"Scene",
			"nodes":[
				0
			]
		}
	],
	"nodes":[
		{
			"mesh":0,
			"name":"SPW_Vehicle_Land_Static_Muscle Car",
			"rotation":[
				0.7071068286895752,
				0,
				0,
				0.7071068286895752
			]
		}
	],
	"materials":[
		{
			"doubleSided":true,
			"extensions":{
				"KHR_materials_specular":{
					"specularColorFactor":[
						0.4000000059604645,
						0.4000000059604645,
						0.4000000059604645
					]
				}
			},
			"name":"SPW_Vehicle_Land_Muscle Car",
			"pbrMetallicRoughness":{
				"baseColorTexture":{
					"index":0
				},
				"metallicFactor":0,
				"roughnessFactor":0.5527864098548889
			}
		}
	],
	"meshes":[
		{
			"name":"Cube.000",
			"primitives":[
				{
					"attributes":{
						"POSITION":0,
						"NORMAL":1,
						"TEXCOORD_0":2,
						"COLOR_0":3,
						"COLOR_1":4
					},
					"indices":5,
					"material":0
				}
			]
		}
	],
	"textures":[
		{
			"sampler":0,
			"source":0
		}
	],
	"images":[
		{
			"mimeType":"image/png",
			"name":"SPW_Vehicle_Land_Muscle Car_Color02",
			"uri":"SPW_Vehicle_Land_Muscle%20Car_Color02.png"
		}
	],
	"accessors":[
		{
			"bufferView":0,
			"componentType":5126,
			"count":2782,
			"max":[
				1.529387354850769,
				3.208220958709717,
				0.0007680654525756836
			],
			"min":[
				-1.5289206504821777,
				-3.223008394241333,
				-2.7865028381347656
			],
			"type":"VEC3"
		},
		{
			"bufferView":1,
			"componentType":5126,
			"count":2782,
			"type":"VEC3"
		},
		{
			"bufferView":2,
			"componentType":5126,
			"count":2782,
			"type":"VEC2"
		},
		{
			"bufferView":3,
			"componentType":5121,
			"count":2782,
			"normalized":true,
			"type":"VEC4"
		},
		{
			"bufferView":4,
			"componentType":5123,
			"count":2782,
			"normalized":true,
			"type":"VEC4"
		},
		{
			"bufferView":5,
			"componentType":5123,
			"count":4728,
			"type":"SCALAR"
		}
	],
	"bufferViews":[
		{
			"buffer":0,
			"byteLength":33384,
			"byteOffset":0,
			"target":34962
		},
		{
			"buffer":0,
			"byteLength":33384,
			"byteOffset":33384,
			"target":34962
		},
		{
			"buffer":0,
			"byteLength":22256,
			"byteOffset":66768,
			"target":34962
		},
		{
			"buffer":0,
			"byteLength":11128,
			"byteOffset":89024,
			"target":34962
		},
		{
			"buffer":0,
			"byteLength":22256,
			"byteOffset":100152,
			"target":34962
		},
		{
			"buffer":0,
			"byteLength":9456,
			"byteOffset":122408,
			"target":34963
		}
	],
	"samplers":[
		{
			"magFilter":9729,
			"minFilter":9987
		}
	],
	"buffers":[
		{
			"byteLength":131864,
			"uri":"SPW_Vehicle_Land_Muscle_Car_01.bin"
		}
	]
}
