{
	"asset":{
		"generator":"Khronos glTF Blender I/O v5.0.21",
		"version":"2.0"
	},
	"extensionsUsed":[
		"KHR_materials_specular"
	],
	"scene":0,
	"scenes":[
		{
			"name":"Scene",
			"nodes":[
				0
			]
		}
	],
	"nodes":[
		{
			"mesh":0,
			"name":"SPW_Vehicle_Land_Static_Bus",
			"rotation":[
				0.7071068286895752,
				0,
				0,
				0.7071068286895752
			]
		}
	],
	"materials":[
		{
			"doubleSided":true,
			"extensions":{
				"KHR_materials_specular":{
					"specularColorFactor":[
						0.4000000059604645,
						0.4000000059604645,
						0.4000000059604645
					]
				}
			},
			"name":"SPW_Vehicle_Land_Bus",
			"pbrMetallicRoughness":{
				"baseColorTexture":{
					"index":0
				},
				"metallicFactor":0,
				"roughnessFactor":0.5527864098548889
			}
		}
	],
	"meshes":[
		{
			"name":"Cube.014",
			"primitives":[
				{
					"attributes":{
						"POSITION":0,
						"NORMAL":1,
						"TEXCOORD_0":2
					},
					"indices":3,
					"material":0
				}
			]
		}
	],
	"textures":[
		{
			"sampler":0,
			"source":0
		}
	],
	"images":[
		{
			"mimeType":"image/png",
			"name":"SPW_Vehicle_Land_Bus_Color01",
			"uri":"SPW_Vehicle_Land_Bus_Color01.png"
		}
	],
	"accessors":[
		{
			"bufferView":0,
			"componentType":5126,
			"count":1370,
			"max":[
				1.8390051126480103,
				5.359994411468506,
				0.0010188817977905273
			],
			"min":[
				-1.838490605354309,
				-5.209776878356934,
				-3.518735647201538
			],
			"type":"VEC3"
		},
		{
			"bufferView":1,
			"componentType":5126,
			"count":1370,
			"type":"VEC3"
		},
		{
			"bufferView":2,
			"componentType":5126,
			"count":1370,
			"type":"VEC2"
		},
		{
			"bufferView":3,
			"componentType":5123,
			"count":2532,
			"type":"SCALAR"
		}
	],
	"bufferViews":[
		{
			"buffer":0,
			"byteLength":16440,
			"byteOffset":0,
			"target":34962
		},
		{
			"buffer":0,
			"byteLength":16440,
			"byteOffset":16440,
			"target":34962
		},
		{
			"buffer":0,
			"byteLength":10960,
			"byteOffset":32880,
			"target":34962
		},
		{
			"buffer":0,
			"byteLength":5064,
			"byteOffset":43840,
			"target":34963
		}
	],
	"samplers":[
		{
			"magFilter":9729,
			"minFilter":9987
		}
	],
	"buffers":[
		{
			"byteLength":48904,
			"uri":"SPW_Vehicle_Land_Bus.bin"
		}
	]
}
