{
	"asset":{
		"generator":"Khronos glTF Blender I/O v5.0.21",
		"version":"2.0"
	},
	"extensionsUsed":[
		"KHR_materials_specular"
	],
	"scene":0,
	"scenes":[
		{
			"name":"Scene",
			"nodes":[
				0,
				1
			]
		}
	],
	"nodes":[
		{
			"mesh":0,
			"name":"SPW_Urban_Bldg_12",
			"rotation":[
				0.7071068286895752,
				0,
				0,
				0.7071068286895752
			]
		},
		{
			"mesh":1,
			"name":"SPW_Urban_Text_School",
			"rotation":[
				0,
				-0.7071068286895752,
				0.7071068286895752,
				3.090862321641907e-08
			],
			"scale":[
				1.8949533700942993,
				4.061761379241943,
				1.8949533700942993
			],
			"translation":[
				0.01547937747091055,
				12.555164337158203,
				-8.303142547607422
			]
		}
	],
	"materials":[
		{
			"doubleSided":true,
			"extensions":{
				"KHR_materials_specular":{
					"specularColorFactor":[
						0.4000000059604645,
						0.4000000059604645,
						0.4000000059604645
					]
				}
			},
			"name":"SPW_Urban_Bldg_12",
			"pbrMetallicRoughness":{
				"baseColorTexture":{
					"index":0
				},
				"metallicFactor":0,
				"roughnessFactor":0.5527864098548889
			}
		},
		{
			"doubleSided":true,
			"extensions":{
				"KHR_materials_specular":{
					"specularColorFactor":[
						0.4000000059604645,
						0.4000000059604645,
						0.4000000059604645
					]
				}
			},
			"name":"SPW_Urban_Text",
			"pbrMetallicRoughness":{
				"baseColorFactor":[
					0,
					0.09312769025564194,
					0.800039529800415,
					1
				],
				"metallicFactor":0,
				"roughnessFactor":0.5527864098548889
			}
		}
	],
	"meshes":[
		{
			"name":"Cube.1399",
			"primitives":[
				{
					"attributes":{
						"POSITION":0,
						"NORMAL":1,
						"TEXCOORD_0":2
					},
					"indices":3,
					"material":0
				}
			]
		},
		{
			"name":"Plane.019",
			"primitives":[
				{
					"attributes":{
						"POSITION":4,
						"NORMAL":5
					},
					"indices":6,
					"material":1
				}
			]
		}
	],
	"textures":[
		{
			"sampler":0,
			"source":0
		}
	],
	"images":[
		{
			"mimeType":"image/png",
			"name":"SPW_Urban_Bldg_12_Color02",
			"uri":"SPW_Urban_Bldg_12_Color02.png"
		}
	],
	"accessors":[
		{
			"bufferView":0,
			"componentType":5126,
			"count":2346,
			"max":[
				20.598421096801758,
				8.500001907348633,
				3.715468039899861e-07
			],
			"min":[
				-20.598421096801758,
				-14.000000953674316,
				-15
			],
			"type":"VEC3"
		},
		{
			"bufferView":1,
			"componentType":5126,
			"count":2346,
			"type":"VEC3"
		},
		{
			"bufferView":2,
			"componentType":5126,
			"count":2346,
			"type":"VEC2"
		},
		{
			"bufferView":3,
			"componentType":5123,
			"count":3768,
			"type":"SCALAR"
		},
		{
			"bufferView":4,
			"componentType":5126,
			"count":1594,
			"max":[
				1.7348397970199585,
				0.05000010132789612,
				0.011847203597426414
			],
			"min":[
				-1.6039692163467407,
				-0.05000009760260582,
				-0.571793794631958
			],
			"type":"VEC3"
		},
		{
			"bufferView":5,
			"componentType":5126,
			"count":1594,
			"type":"VEC3"
		},
		{
			"bufferView":6,
			"componentType":5123,
			"count":3144,
			"type":"SCALAR"
		}
	],
	"bufferViews":[
		{
			"buffer":0,
			"byteLength":28152,
			"byteOffset":0,
			"target":34962
		},
		{
			"buffer":0,
			"byteLength":28152,
			"byteOffset":28152,
			"target":34962
		},
		{
			"buffer":0,
			"byteLength":18768,
			"byteOffset":56304,
			"target":34962
		},
		{
			"buffer":0,
			"byteLength":7536,
			"byteOffset":75072,
			"target":34963
		},
		{
			"buffer":0,
			"byteLength":19128,
			"byteOffset":82608,
			"target":34962
		},
		{
			"buffer":0,
			"byteLength":19128,
			"byteOffset":101736,
			"target":34962
		},
		{
			"buffer":0,
			"byteLength":6288,
			"byteOffset":120864,
			"target":34963
		}
	],
	"samplers":[
		{
			"magFilter":9729,
			"minFilter":9987
		}
	],
	"buffers":[
		{
			"byteLength":127152,
			"uri":"SPW_Urban_Bldg_12.bin"
		}
	]
}
