{
	"asset":{
		"generator":"Khronos glTF Blender I/O v5.0.21",
		"version":"2.0"
	},
	"scene":0,
	"scenes":[
		{
			"name":"Scene",
			"nodes":[
				0
			]
		}
	],
	"nodes":[
		{
			"mesh":0,
			"name":"SPW_Urban_Bldg_03",
			"rotation":[
				0.7071067690849304,
				0,
				0,
				0.7071068286895752
			],
			"scale":[
				0.9615139961242676,
				0.9615139961242676,
				0.9615139961242676
			]
		}
	],
	"materials":[
		{
			"doubleSided":true,
			"name":"SPW_Urban_Bldg_03",
			"pbrMetallicRoughness":{
				"baseColorTexture":{
					"index":0
				},
				"metallicFactor":0,
				"roughnessFactor":0.5527864098548889
			}
		}
	],
	"meshes":[
		{
			"name":"Cube.088",
			"primitives":[
				{
					"attributes":{
						"POSITION":0,
						"NORMAL":1,
						"TEXCOORD_0":2
					},
					"indices":3,
					"material":0
				}
			]
		}
	],
	"textures":[
		{
			"sampler":0,
			"source":0
		}
	],
	"images":[
		{
			"mimeType":"image/png",
			"name":"SPW_Urban_Bldg_03_Color02",
			"uri":"SPW_Urban_Bldg_03_Color02.png"
		}
	],
	"accessors":[
		{
			"bufferView":0,
			"componentType":5126,
			"count":644,
			"max":[
				9.015000343322754,
				6.778620719909668,
				-6.636743137278245e-07
			],
			"min":[
				-9.015002250671387,
				-7.472883224487305,
				-21.375
			],
			"type":"VEC3"
		},
		{
			"bufferView":1,
			"componentType":5126,
			"count":644,
			"type":"VEC3"
		},
		{
			"bufferView":2,
			"componentType":5126,
			"count":644,
			"type":"VEC2"
		},
		{
			"bufferView":3,
			"componentType":5123,
			"count":1212,
			"type":"SCALAR"
		}
	],
	"bufferViews":[
		{
			"buffer":0,
			"byteLength":7728,
			"byteOffset":0,
			"target":34962
		},
		{
			"buffer":0,
			"byteLength":7728,
			"byteOffset":7728,
			"target":34962
		},
		{
			"buffer":0,
			"byteLength":5152,
			"byteOffset":15456,
			"target":34962
		},
		{
			"buffer":0,
			"byteLength":2424,
			"byteOffset":20608,
			"target":34963
		}
	],
	"samplers":[
		{
			"magFilter":9729,
			"minFilter":9987
		}
	],
	"buffers":[
		{
			"byteLength":23032,
			"uri":"SPW_Urban_Bldg_03.bin"
		}
	]
}
