{
	"asset":{
		"generator":"Khronos glTF Blender I/O v5.0.21",
		"version":"2.0"
	},
	"extensionsUsed":[
		"KHR_materials_specular"
	],
	"scene":0,
	"scenes":[
		{
			"name":"Scene",
			"nodes":[
				0
			]
		}
	],
	"nodes":[
		{
			"mesh":0,
			"name":"SPW_Vehicle_Land_Static_Truck Tanker",
			"rotation":[
				0.7071068286895752,
				0,
				0,
				0.7071068286895752
			]
		}
	],
	"materials":[
		{
			"doubleSided":true,
			"extensions":{
				"KHR_materials_specular":{
					"specularColorFactor":[
						0.4000000059604645,
						0.4000000059604645,
						0.4000000059604645
					]
				}
			},
			"name":"SPW_Vehicle_Land_Truck Tanker",
			"pbrMetallicRoughness":{
				"baseColorTexture":{
					"index":0
				},
				"metallicFactor":0.4923076927661896,
				"roughnessFactor":0.5527864098548889
			}
		}
	],
	"meshes":[
		{
			"name":"Cube.048",
			"primitives":[
				{
					"attributes":{
						"POSITION":0,
						"NORMAL":1,
						"TEXCOORD_0":2
					},
					"indices":3,
					"material":0
				}
			]
		}
	],
	"textures":[
		{
			"sampler":0,
			"source":0
		}
	],
	"images":[
		{
			"mimeType":"image/png",
			"name":"SPW_Vehicle_Land_Truck Tanker_Color02",
			"uri":"SPW_Vehicle_Land_Truck%20Tanker_Color02.png"
		}
	],
	"accessors":[
		{
			"bufferView":0,
			"componentType":5126,
			"count":2967,
			"max":[
				1.968313217163086,
				4.780549049377441,
				0.0003418922424316406
			],
			"min":[
				-1.9681830406188965,
				-9.099018096923828,
				-4.472194671630859
			],
			"type":"VEC3"
		},
		{
			"bufferView":1,
			"componentType":5126,
			"count":2967,
			"type":"VEC3"
		},
		{
			"bufferView":2,
			"componentType":5126,
			"count":2967,
			"type":"VEC2"
		},
		{
			"bufferView":3,
			"componentType":5123,
			"count":5100,
			"type":"SCALAR"
		}
	],
	"bufferViews":[
		{
			"buffer":0,
			"byteLength":35604,
			"byteOffset":0,
			"target":34962
		},
		{
			"buffer":0,
			"byteLength":35604,
			"byteOffset":35604,
			"target":34962
		},
		{
			"buffer":0,
			"byteLength":23736,
			"byteOffset":71208,
			"target":34962
		},
		{
			"buffer":0,
			"byteLength":10200,
			"byteOffset":94944,
			"target":34963
		}
	],
	"samplers":[
		{
			"magFilter":9729,
			"minFilter":9987
		}
	],
	"buffers":[
		{
			"byteLength":105144,
			"uri":"SPW_Vehicle_Land_Static_Truck_Tanker.bin"
		}
	]
}
