{
	"asset":{
		"generator":"Khronos glTF Blender I/O v5.0.21",
		"version":"2.0"
	},
	"extensionsUsed":[
		"KHR_materials_specular"
	],
	"scene":0,
	"scenes":[
		{
			"name":"Scene",
			"nodes":[
				0
			]
		}
	],
	"nodes":[
		{
			"mesh":0,
			"name":"SPW_Vehicle_Land_Static_Pick Up Truck",
			"rotation":[
				0.7071068286895752,
				0,
				0,
				0.7071068286895752
			]
		}
	],
	"materials":[
		{
			"doubleSided":true,
			"extensions":{
				"KHR_materials_specular":{
					"specularColorFactor":[
						2.0,
						2.0,
						2.0
					]
				}
			},
			"name":"SPW_Vehicle_Land_Pick Up Truck",
			"pbrMetallicRoughness":{
				"baseColorTexture":{
					"index":0
				},
				"roughnessFactor":0.5527864098548889
			}
		}
	],
	"meshes":[
		{
			"name":"Cube.000",
			"primitives":[
				{
					"attributes":{
						"POSITION":0,
						"NORMAL":1,
						"TEXCOORD_0":2,
						"COLOR_0":3,
						"COLOR_1":4
					},
					"indices":5,
					"material":0
				}
			]
		}
	],
	"textures":[
		{
			"sampler":0,
			"source":0
		}
	],
	"images":[
		{
			"mimeType":"image/png",
			"name":"SPW_Vehicle_Land_Pick Up Truck_Color02",
			"uri":"SPW_Vehicle_Land_Pick%20Up%20Truck_Color02.png"
		}
	],
	"accessors":[
		{
			"bufferView":0,
			"componentType":5126,
			"count":1282,
			"max":[
				1.5295155048370361,
				3.2334136962890625,
				0.00042641162872314453
			],
			"min":[
				-1.5287925004959106,
				-3.1978156566619873,
				-2.2888174057006836
			],
			"type":"VEC3"
		},
		{
			"bufferView":1,
			"componentType":5126,
			"count":1282,
			"type":"VEC3"
		},
		{
			"bufferView":2,
			"componentType":5126,
			"count":1282,
			"type":"VEC2"
		},
		{
			"bufferView":3,
			"componentType":5121,
			"count":1282,
			"normalized":true,
			"type":"VEC4"
		},
		{
			"bufferView":4,
			"componentType":5123,
			"count":1282,
			"normalized":true,
			"type":"VEC4"
		},
		{
			"bufferView":5,
			"componentType":5123,
			"count":2268,
			"type":"SCALAR"
		}
	],
	"bufferViews":[
		{
			"buffer":0,
			"byteLength":15384,
			"byteOffset":0,
			"target":34962
		},
		{
			"buffer":0,
			"byteLength":15384,
			"byteOffset":15384,
			"target":34962
		},
		{
			"buffer":0,
			"byteLength":10256,
			"byteOffset":30768,
			"target":34962
		},
		{
			"buffer":0,
			"byteLength":5128,
			"byteOffset":41024,
			"target":34962
		},
		{
			"buffer":0,
			"byteLength":10256,
			"byteOffset":46152,
			"target":34962
		},
		{
			"buffer":0,
			"byteLength":4536,
			"byteOffset":56408,
			"target":34963
		}
	],
	"samplers":[
		{
			"magFilter":9729,
			"minFilter":9987
		}
	],
	"buffers":[
		{
			"byteLength":60944,
			"uri":"SPW_Vehicle_Land_Static_Pick_Up_Truck.bin"
		}
	]
}
