{
	"asset":{
		"generator":"Khronos glTF Blender I/O v5.0.21",
		"version":"2.0"
	},
	"extensionsUsed":[
		"KHR_materials_specular"
	],
	"scene":0,
	"scenes":[
		{
			"name":"Scene",
			"nodes":[
				0
			]
		}
	],
	"nodes":[
		{
			"mesh":0,
			"name":"SPB_Court House",
			"rotation":[
				0.7071068286895752,
				0,
				0,
				0.7071068286895752
			]
		}
	],
	"materials":[
		{
			"doubleSided":true,
			"extensions":{
				"KHR_materials_specular":{
					"specularColorFactor":[
						0.4000000059604645,
						0.4000000059604645,
						0.4000000059604645
					]
				}
			},
			"name":"SPB_Court House",
			"pbrMetallicRoughness":{
				"baseColorTexture":{
					"index":0
				},
				"metallicFactor":0,
				"roughnessFactor":0.5527864098548889
			}
		}
	],
	"meshes":[
		{
			"name":"Cube.003",
			"primitives":[
				{
					"attributes":{
						"POSITION":0,
						"NORMAL":1,
						"TEXCOORD_0":2
					},
					"indices":3,
					"material":0
				}
			]
		}
	],
	"textures":[
		{
			"sampler":0,
			"source":0
		}
	],
	"images":[
		{
			"mimeType":"image/png",
			"name":"SPB_Court House",
			"uri":"SPB_Court%20House.png"
		}
	],
	"accessors":[
		{
			"bufferView":0,
			"componentType":5126,
			"count":2793,
			"max":[
				7.815496921539307,
				12.713216781616211,
				1.2874602361989673e-06
			],
			"min":[
				-7.815496921539307,
				-12.67631721496582,
				-14.022919654846191
			],
			"type":"VEC3"
		},
		{
			"bufferView":1,
			"componentType":5126,
			"count":2793,
			"type":"VEC3"
		},
		{
			"bufferView":2,
			"componentType":5126,
			"count":2793,
			"type":"VEC2"
		},
		{
			"bufferView":3,
			"componentType":5123,
			"count":4548,
			"type":"SCALAR"
		}
	],
	"bufferViews":[
		{
			"buffer":0,
			"byteLength":33516,
			"byteOffset":0,
			"target":34962
		},
		{
			"buffer":0,
			"byteLength":33516,
			"byteOffset":33516,
			"target":34962
		},
		{
			"buffer":0,
			"byteLength":22344,
			"byteOffset":67032,
			"target":34962
		},
		{
			"buffer":0,
			"byteLength":9096,
			"byteOffset":89376,
			"target":34963
		}
	],
	"samplers":[
		{
			"magFilter":9729,
			"minFilter":9987
		}
	],
	"buffers":[
		{
			"byteLength":98472,
			"uri":"SPB_Court_House.bin"
		}
	]
}
