{
	"asset":{
		"generator":"Khronos glTF Blender I/O v5.0.21",
		"version":"2.0"
	},
	"extensionsUsed":[
		"KHR_materials_specular"
	],
	"scene":0,
	"scenes":[
		{
			"name":"Scene",
			"nodes":[
				0
			]
		}
	],
	"nodes":[
		{
			"mesh":0,
			"name":"SPB_City Hall",
			"rotation":[
				0.7071068286895752,
				0,
				0,
				0.7071068286895752
			]
		}
	],
	"materials":[
		{
			"doubleSided":true,
			"extensions":{
				"KHR_materials_specular":{
					"specularColorFactor":[
						0.4000000059604645,
						0.4000000059604645,
						0.4000000059604645
					]
				}
			},
			"name":"SPB_City Hall",
			"pbrMetallicRoughness":{
				"baseColorTexture":{
					"index":0
				},
				"metallicFactor":0,
				"roughnessFactor":0.5527864098548889
			}
		}
	],
	"meshes":[
		{
			"name":"Cube.003",
			"primitives":[
				{
					"attributes":{
						"POSITION":0,
						"NORMAL":1,
						"TEXCOORD_0":2,
						"COLOR_0":3,
						"COLOR_1":4
					},
					"indices":5,
					"material":0
				}
			]
		}
	],
	"textures":[
		{
			"sampler":0,
			"source":0
		}
	],
	"images":[
		{
			"mimeType":"image/png",
			"name":"SPB_City Hall",
			"uri":"SPB_City%20Hall.png"
		}
	],
	"accessors":[
		{
			"bufferView":0,
			"componentType":5126,
			"count":3149,
			"max":[
				11.812697410583496,
				10.127460479736328,
				-3.43322744811303e-06
			],
			"min":[
				-11.812697410583496,
				-9.759767532348633,
				-12.672928810119629
			],
			"type":"VEC3"
		},
		{
			"bufferView":1,
			"componentType":5126,
			"count":3149,
			"type":"VEC3"
		},
		{
			"bufferView":2,
			"componentType":5126,
			"count":3149,
			"type":"VEC2"
		},
		{
			"bufferView":3,
			"componentType":5121,
			"count":3149,
			"normalized":true,
			"type":"VEC4"
		},
		{
			"bufferView":4,
			"componentType":5123,
			"count":3149,
			"normalized":true,
			"type":"VEC4"
		},
		{
			"bufferView":5,
			"componentType":5123,
			"count":5148,
			"type":"SCALAR"
		}
	],
	"bufferViews":[
		{
			"buffer":0,
			"byteLength":37788,
			"byteOffset":0,
			"target":34962
		},
		{
			"buffer":0,
			"byteLength":37788,
			"byteOffset":37788,
			"target":34962
		},
		{
			"buffer":0,
			"byteLength":25192,
			"byteOffset":75576,
			"target":34962
		},
		{
			"buffer":0,
			"byteLength":12596,
			"byteOffset":100768,
			"target":34962
		},
		{
			"buffer":0,
			"byteLength":25192,
			"byteOffset":113364,
			"target":34962
		},
		{
			"buffer":0,
			"byteLength":10296,
			"byteOffset":138556,
			"target":34963
		}
	],
	"samplers":[
		{
			"magFilter":9729,
			"minFilter":9987
		}
	],
	"buffers":[
		{
			"byteLength":148852,
			"uri":"SPB_City_Hall.bin"
		}
	]
}
