{
	"asset":{
		"generator":"Khronos glTF Blender I/O v5.0.21",
		"version":"2.0"
	},
	"extensionsUsed":[
		"KHR_materials_specular"
	],
	"scene":0,
	"scenes":[
		{
			"name":"Scene",
			"nodes":[
				0
			]
		}
	],
	"nodes":[
		{
			"mesh":0,
			"name":"SPW_Vehicle_Land_Static_Taxi",
			"rotation":[
				0.7071068286895752,
				0,
				0,
				0.7071068286895752
			]
		}
	],
	"materials":[
		{
			"doubleSided":true,
			"extensions":{
				"KHR_materials_specular":{
					"specularColorFactor":[
						0.4000000059604645,
						0.4000000059604645,
						0.4000000059604645
					]
				}
			},
			"name":"SPW_Vehicle_Land_Taxi",
			"pbrMetallicRoughness":{
				"baseColorTexture":{
					"index":0
				},
				"metallicFactor":0,
				"roughnessFactor":0.5527864098548889
			}
		}
	],
	"meshes":[
		{
			"name":"Cube.000",
			"primitives":[
				{
					"attributes":{
						"POSITION":0,
						"NORMAL":1,
						"TEXCOORD_0":2,
						"COLOR_0":3,
						"COLOR_1":4
					},
					"indices":5,
					"material":0
				}
			]
		}
	],
	"textures":[
		{
			"sampler":0,
			"source":0
		}
	],
	"images":[
		{
			"mimeType":"image/png",
			"name":"SPW_Vehicle_Land_Taxi",
			"uri":"SPW_Vehicle_Land_Taxi.png"
		}
	],
	"accessors":[
		{
			"bufferView":0,
			"componentType":5126,
			"count":1372,
			"max":[
				1.5295277833938599,
				3.1737353801727295,
				0.005089402198791504
			],
			"min":[
				-1.528780221939087,
				-3.2574944496154785,
				-2.5031394958496094
			],
			"type":"VEC3"
		},
		{
			"bufferView":1,
			"componentType":5126,
			"count":1372,
			"type":"VEC3"
		},
		{
			"bufferView":2,
			"componentType":5126,
			"count":1372,
			"type":"VEC2"
		},
		{
			"bufferView":3,
			"componentType":5121,
			"count":1372,
			"normalized":true,
			"type":"VEC4"
		},
		{
			"bufferView":4,
			"componentType":5123,
			"count":1372,
			"normalized":true,
			"type":"VEC4"
		},
		{
			"bufferView":5,
			"componentType":5123,
			"count":2364,
			"type":"SCALAR"
		}
	],
	"bufferViews":[
		{
			"buffer":0,
			"byteLength":16464,
			"byteOffset":0,
			"target":34962
		},
		{
			"buffer":0,
			"byteLength":16464,
			"byteOffset":16464,
			"target":34962
		},
		{
			"buffer":0,
			"byteLength":10976,
			"byteOffset":32928,
			"target":34962
		},
		{
			"buffer":0,
			"byteLength":5488,
			"byteOffset":43904,
			"target":34962
		},
		{
			"buffer":0,
			"byteLength":10976,
			"byteOffset":49392,
			"target":34962
		},
		{
			"buffer":0,
			"byteLength":4728,
			"byteOffset":60368,
			"target":34963
		}
	],
	"samplers":[
		{
			"magFilter":9729,
			"minFilter":9987
		}
	],
	"buffers":[
		{
			"byteLength":65096,
			"uri":"SPW_Vehicle_Land_Static_Taxi.bin"
		}
	]
}
