{
	"asset":{
		"generator":"Khronos glTF Blender I/O v5.0.21",
		"version":"2.0"
	},
	"extensionsUsed":[
		"KHR_materials_specular"
	],
	"scene":0,
	"scenes":[
		{
			"name":"Scene",
			"nodes":[
				0
			]
		}
	],
	"nodes":[
		{
			"mesh":0,
			"name":"SPW_Urban_Bldg_Apartment_01",
			"rotation":[
				0.7071068286895752,
				0,
				0,
				0.7071068286895752
			]
		}
	],
	"materials":[
		{
			"doubleSided":true,
			"extensions":{
				"KHR_materials_specular":{
					"specularColorFactor":[
						0.4000000059604645,
						0.4000000059604645,
						0.4000000059604645
					]
				}
			},
			"name":"SPW_Urban_Bldg_Apartment",
			"pbrMetallicRoughness":{
				"baseColorTexture":{
					"index":0
				},
				"metallicFactor":0,
				"roughnessFactor":0.5527864098548889
			}
		}
	],
	"meshes":[
		{
			"name":"Cube.1518",
			"primitives":[
				{
					"attributes":{
						"POSITION":0,
						"NORMAL":1,
						"TEXCOORD_0":2
					},
					"indices":3,
					"material":0
				}
			]
		}
	],
	"textures":[
		{
			"sampler":0,
			"source":0
		}
	],
	"images":[
		{
			"mimeType":"image/png",
			"name":"SPW_Urban_Bldg_Apartment_01_Color02",
			"uri":"SPW_Urban_Bldg_Apartment_01_Color02.png"
		}
	],
	"accessors":[
		{
			"bufferView":0,
			"componentType":5126,
			"count":3915,
			"max":[
				11.359001159667969,
				8.586044311523438,
				3.7530597296608903e-07
			],
			"min":[
				-11.320999145507812,
				-8.586043357849121,
				-24.604042053222656
			],
			"type":"VEC3"
		},
		{
			"bufferView":1,
			"componentType":5126,
			"count":3915,
			"type":"VEC3"
		},
		{
			"bufferView":2,
			"componentType":5126,
			"count":3915,
			"type":"VEC2"
		},
		{
			"bufferView":3,
			"componentType":5123,
			"count":6600,
			"type":"SCALAR"
		}
	],
	"bufferViews":[
		{
			"buffer":0,
			"byteLength":46980,
			"byteOffset":0,
			"target":34962
		},
		{
			"buffer":0,
			"byteLength":46980,
			"byteOffset":46980,
			"target":34962
		},
		{
			"buffer":0,
			"byteLength":31320,
			"byteOffset":93960,
			"target":34962
		},
		{
			"buffer":0,
			"byteLength":13200,
			"byteOffset":125280,
			"target":34963
		}
	],
	"samplers":[
		{
			"magFilter":9729,
			"minFilter":9987
		}
	],
	"buffers":[
		{
			"byteLength":138480,
			"uri":"SPW_Urban_Bldg_Apartment_01.bin"
		}
	]
}
