{
	"asset":{
		"generator":"Khronos glTF Blender I/O v5.0.21",
		"version":"2.0"
	},
	"extensionsUsed":[
		"KHR_materials_specular"
	],
	"scene":0,
	"scenes":[
		{
			"name":"Scene",
			"nodes":[
				0
			]
		}
	],
	"nodes":[
		{
			"mesh":0,
			"name":"SPB_Mosque",
			"rotation":[
				0.7071068286895752,
				0,
				0,
				0.7071068286895752
			]
		}
	],
	"materials":[
		{
			"doubleSided":true,
			"extensions":{
				"KHR_materials_specular":{
					"specularColorFactor":[
						0.4000000059604645,
						0.4000000059604645,
						0.4000000059604645
					]
				}
			},
			"name":"SPB_Mosque",
			"pbrMetallicRoughness":{
				"baseColorTexture":{
					"index":0
				},
				"metallicFactor":0,
				"roughnessFactor":0.2256259024143219
			}
		}
	],
	"meshes":[
		{
			"name":"Cube.096",
			"primitives":[
				{
					"attributes":{
						"POSITION":0,
						"NORMAL":1,
						"TEXCOORD_0":2
					},
					"indices":3,
					"material":0
				}
			]
		}
	],
	"textures":[
		{
			"sampler":0,
			"source":0
		}
	],
	"images":[
		{
			"mimeType":"image/png",
			"name":"SPB_Mosque",
			"uri":"SPB_Mosque.png"
		}
	],
	"accessors":[
		{
			"bufferView":0,
			"componentType":5126,
			"count":8277,
			"max":[
				12.40000057220459,
				8,
				9.811368499867967e-07
			],
			"min":[
				-12.40000057220459,
				-7.173526287078857,
				-11.416569709777832
			],
			"type":"VEC3"
		},
		{
			"bufferView":1,
			"componentType":5126,
			"count":8277,
			"type":"VEC3"
		},
		{
			"bufferView":2,
			"componentType":5126,
			"count":8277,
			"type":"VEC2"
		},
		{
			"bufferView":3,
			"componentType":5123,
			"count":12702,
			"type":"SCALAR"
		}
	],
	"bufferViews":[
		{
			"buffer":0,
			"byteLength":99324,
			"byteOffset":0,
			"target":34962
		},
		{
			"buffer":0,
			"byteLength":99324,
			"byteOffset":99324,
			"target":34962
		},
		{
			"buffer":0,
			"byteLength":66216,
			"byteOffset":198648,
			"target":34962
		},
		{
			"buffer":0,
			"byteLength":25404,
			"byteOffset":264864,
			"target":34963
		}
	],
	"samplers":[
		{
			"magFilter":9729,
			"minFilter":9987
		}
	],
	"buffers":[
		{
			"byteLength":290268,
			"uri":"SPB_Mosque.bin"
		}
	]
}
