{
	"asset":{
		"generator":"Khronos glTF Blender I/O v5.0.21",
		"version":"2.0"
	},
	"extensionsUsed":[
		"KHR_materials_specular"
	],
	"scene":0,
	"scenes":[
		{
			"name":"Scene",
			"nodes":[
				0
			]
		}
	],
	"nodes":[
		{
			"mesh":0,
			"name":"SPW_Vehicle_Land_Static_Car",
			"rotation":[
				0.7071068286895752,
				0,
				0,
				0.7071068286895752
			],
			"translation":[
				0,
				0,
				-0.006342369131743908
			]
		}
	],
	"materials":[
		{
			"doubleSided":true,
			"extensions":{
				"KHR_materials_specular":{
					"specularColorFactor":[
						0.4000000059604645,
						0.4000000059604645,
						0.4000000059604645
					]
				}
			},
			"name":"SPW_Vehicle_Land_Car",
			"pbrMetallicRoughness":{
				"baseColorTexture":{
					"index":0
				},
				"metallicFactor":0,
				"roughnessFactor":0.5527864098548889
			}
		}
	],
	"meshes":[
		{
			"name":"Cube.000",
			"primitives":[
				{
					"attributes":{
						"POSITION":0,
						"NORMAL":1,
						"TEXCOORD_0":2,
						"COLOR_0":3,
						"COLOR_1":4
					},
					"indices":5,
					"material":0
				}
			]
		}
	],
	"textures":[
		{
			"sampler":0,
			"source":0
		}
	],
	"images":[
		{
			"mimeType":"image/png",
			"name":"SPW_Vehicle_Land_Car_Color02",
			"uri":"SPW_Vehicle_Land_Car_Color02.png"
		}
	],
	"accessors":[
		{
			"bufferView":0,
			"componentType":5126,
			"count":1276,
			"max":[
				1.529523491859436,
				3.175563097000122,
				0.002333521842956543
			],
			"min":[
				-1.5287845134735107,
				-3.255667209625244,
				-2.271066188812256
			],
			"type":"VEC3"
		},
		{
			"bufferView":1,
			"componentType":5126,
			"count":1276,
			"type":"VEC3"
		},
		{
			"bufferView":2,
			"componentType":5126,
			"count":1276,
			"type":"VEC2"
		},
		{
			"bufferView":3,
			"componentType":5121,
			"count":1276,
			"normalized":true,
			"type":"VEC4"
		},
		{
			"bufferView":4,
			"componentType":5123,
			"count":1276,
			"normalized":true,
			"type":"VEC4"
		},
		{
			"bufferView":5,
			"componentType":5123,
			"count":2280,
			"type":"SCALAR"
		}
	],
	"bufferViews":[
		{
			"buffer":0,
			"byteLength":15312,
			"byteOffset":0,
			"target":34962
		},
		{
			"buffer":0,
			"byteLength":15312,
			"byteOffset":15312,
			"target":34962
		},
		{
			"buffer":0,
			"byteLength":10208,
			"byteOffset":30624,
			"target":34962
		},
		{
			"buffer":0,
			"byteLength":5104,
			"byteOffset":40832,
			"target":34962
		},
		{
			"buffer":0,
			"byteLength":10208,
			"byteOffset":45936,
			"target":34962
		},
		{
			"buffer":0,
			"byteLength":4560,
			"byteOffset":56144,
			"target":34963
		}
	],
	"samplers":[
		{
			"magFilter":9729,
			"minFilter":9987
		}
	],
	"buffers":[
		{
			"byteLength":60704,
			"uri":"SPW_Vehicle_Land_Car_02.bin"
		}
	]
}
