{
	"asset":{
		"generator":"Khronos glTF Blender I/O v5.0.21",
		"version":"2.0"
	},
	"extensionsUsed":[
		"KHR_materials_specular"
	],
	"scene":0,
	"scenes":[
		{
			"name":"Scene",
			"nodes":[
				0,
				1,
				2,
				3,
				4,
				5,
				6,
				7,
				8,
				9,
				10,
				11,
				12,
				13,
				14
			]
		}
	],
	"nodes":[
		{
			"mesh":0,
			"name":"SPW_Urban_Road Parking Lot Big",
			"rotation":[
				0.7071068286895752,
				0,
				0,
				0.7071068286895752
			]
		},
		{
			"mesh":1,
			"name":"SPW_Vehicle_Land_Static_Car",
			"rotation":[
				0.7071068286895752,
				0,
				0,
				0.7071068286895752
			],
			"translation":[
				6.729409217834473,
				0,
				-6.787162780761719
			]
		},
		{
			"mesh":2,
			"name":"SPW_Vehicle_Land_Static_Muscle Car",
			"rotation":[
				0,
				-0.7071068286895752,
				0.7071068286895752,
				3.090862321641907e-08
			],
			"translation":[
				16.417835235595703,
				0,
				3.357442617416382
			]
		},
		{
			"mesh":3,
			"name":"SPW_Vehicle_Land_Static_Taxi",
			"rotation":[
				0.7071068286895752,
				0,
				0,
				0.7071068286895752
			],
			"translation":[
				2.4989285469055176,
				0,
				-7.357837677001953
			]
		},
		{
			"mesh":4,
			"name":"SPW_Vehicle_Land_Static_Car.001",
			"rotation":[
				0.7071068286895752,
				0,
				0,
				0.7071068286895752
			],
			"translation":[
				11.379914283752441,
				0,
				-6.913711071014404
			]
		},
		{
			"mesh":5,
			"name":"SPW_Vehicle_Land_Static_Muscle Car.001",
			"rotation":[
				0,
				-0.7071068286895752,
				0.7071068286895752,
				3.090862321641907e-08
			],
			"translation":[
				-2.3156063556671143,
				0,
				-32.899600982666016
			]
		},
		{
			"mesh":6,
			"name":"SPW_Vehicle_Land_Static_Muscle Car.002",
			"rotation":[
				0,
				-0.7071068286895752,
				0.7071068286895752,
				3.090862321641907e-08
			],
			"translation":[
				2.240312099456787,
				0,
				-32.77984619140625
			]
		},
		{
			"mesh":7,
			"name":"SPW_Vehicle_Land_Static_Taxi.001",
			"rotation":[
				0.40476056933403015,
				-0.5798007845878601,
				0.5798007249832153,
				0.40476053953170776
			],
			"translation":[
				-5.458859920501709,
				0,
				-19.212966918945312
			]
		},
		{
			"mesh":8,
			"name":"SPW_Vehicle_Land_Static_Muscle Car.003",
			"rotation":[
				0.4055798351764679,
				0.5792280435562134,
				-0.5792279243469238,
				0.4055798053741455
			],
			"translation":[
				-15.222404479980469,
				0,
				17.536041259765625
			]
		},
		{
			"mesh":9,
			"name":"SPW_Vehicle_Land_Static_Muscle Car.004",
			"rotation":[
				0,
				-0.7071068286895752,
				0.7071068286895752,
				3.090862321641907e-08
			],
			"translation":[
				11.542064666748047,
				0,
				33.09348678588867
			]
		},
		{
			"mesh":10,
			"name":"SPW_Urban_Road Sign_Parking Lot",
			"rotation":[
				0.7071068286895752,
				0,
				0,
				0.7071068286895752
			],
			"scale":[
				5.660569667816162,
				1,
				5.660569667816162
			],
			"translation":[
				-25,
				0,
				0
			]
		},
		{
			"name":"SPW_Urban_Road Props_Stop Barrier_04.009",
			"rotation":[
				0.49902835488319397,
				0.5009698867797852,
				-0.5009697675704956,
				0.49902838468551636
			],
			"translation":[
				-254.59120178222656,
				-127.78662872314453,
				80.84974670410156
			]
		},
		{
			"name":"SPW_Urban_Road Props_Stop Barrier_03.007",
			"rotation":[
				0.49902835488319397,
				0.5009698867797852,
				-0.5009697675704956,
				0.49902838468551636
			],
			"translation":[
				-254.52490234375,
				-127.78662872314453,
				97.84271240234375
			]
		},
		{
			"name":"SPW_Urban_Road Props_Stop Barrier_04.001",
			"rotation":[
				0.49902835488319397,
				0.5009698867797852,
				-0.5009697675704956,
				0.49902838468551636
			],
			"translation":[
				-262.0643310546875,
				-132.7554168701172,
				40.408912658691406
			]
		},
		{
			"name":"SPW_Urban_Road Props_Stop Barrier_03.001",
			"rotation":[
				0.49902835488319397,
				0.5009698867797852,
				-0.5009697675704956,
				0.49902838468551636
			],
			"translation":[
				-261.998046875,
				-132.7554168701172,
				57.401878356933594
			]
		}
	],
	"materials":[
		{
			"doubleSided":true,
			"extensions":{
				"KHR_materials_specular":{
					"specularColorFactor":[
						0.4000000059604645,
						0.4000000059604645,
						0.4000000059604645
					]
				}
			},
			"name":"SPW_Urban_Road",
			"pbrMetallicRoughness":{
				"baseColorTexture":{
					"index":0
				},
				"metallicFactor":0,
				"roughnessFactor":0.5527864098548889
			}
		},
		{
			"doubleSided":true,
			"extensions":{
				"KHR_materials_specular":{
					"specularColorFactor":[
						0.4000000059604645,
						0.4000000059604645,
						0.4000000059604645
					]
				}
			},
			"name":"SPW_Vehicle_Land_Car",
			"pbrMetallicRoughness":{
				"baseColorTexture":{
					"index":1
				},
				"metallicFactor":0,
				"roughnessFactor":0.5527864098548889
			}
		},
		{
			"doubleSided":true,
			"extensions":{
				"KHR_materials_specular":{
					"specularColorFactor":[
						0.4000000059604645,
						0.4000000059604645,
						0.4000000059604645
					]
				}
			},
			"name":"SPW_Vehicle_Land_Muscle Car",
			"pbrMetallicRoughness":{
				"baseColorTexture":{
					"index":2
				},
				"metallicFactor":0,
				"roughnessFactor":0.5527864098548889
			}
		},
		{
			"doubleSided":true,
			"extensions":{
				"KHR_materials_specular":{
					"specularColorFactor":[
						0.4000000059604645,
						0.4000000059604645,
						0.4000000059604645
					]
				}
			},
			"name":"SPW_Vehicle_Land_Taxi",
			"pbrMetallicRoughness":{
				"baseColorTexture":{
					"index":3
				},
				"metallicFactor":0,
				"roughnessFactor":0.5527864098548889
			}
		},
		{
			"doubleSided":true,
			"extensions":{
				"KHR_materials_specular":{
					"specularColorFactor":[
						0.4000000059604645,
						0.4000000059604645,
						0.4000000059604645
					]
				}
			},
			"name":"SPW_Vehicle_Land_Car.001",
			"pbrMetallicRoughness":{
				"baseColorTexture":{
					"index":4
				},
				"metallicFactor":0,
				"roughnessFactor":0.5527864098548889
			}
		},
		{
			"doubleSided":true,
			"extensions":{
				"KHR_materials_specular":{
					"specularColorFactor":[
						0.4000000059604645,
						0.4000000059604645,
						0.4000000059604645
					]
				}
			},
			"name":"SPW_Vehicle_Land_Muscle Car.001",
			"pbrMetallicRoughness":{
				"baseColorTexture":{
					"index":5
				},
				"metallicFactor":0,
				"roughnessFactor":0.5527864098548889
			}
		},
		{
			"doubleSided":true,
			"extensions":{
				"KHR_materials_specular":{
					"specularColorFactor":[
						0.4000000059604645,
						0.4000000059604645,
						0.4000000059604645
					]
				}
			},
			"name":"SPW_Vehicle_Land_Muscle Car.002",
			"pbrMetallicRoughness":{
				"baseColorTexture":{
					"index":6
				},
				"metallicFactor":0,
				"roughnessFactor":0.5527864098548889
			}
		},
		{
			"doubleSided":true,
			"extensions":{
				"KHR_materials_specular":{
					"specularColorFactor":[
						0.4000000059604645,
						0.4000000059604645,
						0.4000000059604645
					]
				}
			},
			"name":"SPW_Vehicle_Land_Taxi.001",
			"pbrMetallicRoughness":{
				"baseColorTexture":{
					"index":7
				},
				"metallicFactor":0,
				"roughnessFactor":0.5527864098548889
			}
		},
		{
			"doubleSided":true,
			"extensions":{
				"KHR_materials_specular":{
					"specularColorFactor":[
						0.4000000059604645,
						0.4000000059604645,
						0.4000000059604645
					]
				}
			},
			"name":"SPW_Vehicle_Land_Muscle Car.003",
			"pbrMetallicRoughness":{
				"baseColorTexture":{
					"index":8
				},
				"metallicFactor":0,
				"roughnessFactor":0.5527864098548889
			}
		},
		{
			"doubleSided":true,
			"extensions":{
				"KHR_materials_specular":{
					"specularColorFactor":[
						0.4000000059604645,
						0.4000000059604645,
						0.4000000059604645
					]
				}
			},
			"name":"SPW_Vehicle_Land_Muscle Car.004",
			"pbrMetallicRoughness":{
				"baseColorTexture":{
					"index":9
				},
				"metallicFactor":0,
				"roughnessFactor":0.5527864098548889
			}
		},
		{
			"doubleSided":true,
			"extensions":{
				"KHR_materials_specular":{
					"specularColorFactor":[
						0.4000000059604645,
						0.4000000059604645,
						0.4000000059604645
					]
				}
			},
			"name":"SPW_Urban_Road Props_01",
			"pbrMetallicRoughness":{
				"baseColorTexture":{
					"index":10
				},
				"metallicFactor":0,
				"roughnessFactor":0.5527864098548889
			}
		}
	],
	"meshes":[
		{
			"name":"Plane.067",
			"primitives":[
				{
					"attributes":{
						"POSITION":0,
						"NORMAL":1,
						"TEXCOORD_0":2
					},
					"indices":3,
					"material":0
				}
			]
		},
		{
			"name":"Cube.000",
			"primitives":[
				{
					"attributes":{
						"POSITION":4,
						"NORMAL":5,
						"TEXCOORD_0":6,
						"COLOR_0":7,
						"COLOR_1":8
					},
					"indices":9,
					"material":1
				}
			]
		},
		{
			"name":"Cube.001",
			"primitives":[
				{
					"attributes":{
						"POSITION":10,
						"NORMAL":11,
						"TEXCOORD_0":12,
						"COLOR_0":13,
						"COLOR_1":14
					},
					"indices":15,
					"material":2
				}
			]
		},
		{
			"name":"Cube.002",
			"primitives":[
				{
					"attributes":{
						"POSITION":16,
						"NORMAL":17,
						"TEXCOORD_0":18,
						"COLOR_0":19,
						"COLOR_1":20
					},
					"indices":21,
					"material":3
				}
			]
		},
		{
			"name":"Cube.003",
			"primitives":[
				{
					"attributes":{
						"POSITION":22,
						"NORMAL":23,
						"TEXCOORD_0":24,
						"COLOR_0":25,
						"COLOR_1":26
					},
					"indices":9,
					"material":4
				}
			]
		},
		{
			"name":"Cube.004",
			"primitives":[
				{
					"attributes":{
						"POSITION":27,
						"NORMAL":28,
						"TEXCOORD_0":29,
						"COLOR_0":30,
						"COLOR_1":31
					},
					"indices":15,
					"material":5
				}
			]
		},
		{
			"name":"Cube.005",
			"primitives":[
				{
					"attributes":{
						"POSITION":32,
						"NORMAL":33,
						"TEXCOORD_0":34,
						"COLOR_0":35,
						"COLOR_1":36
					},
					"indices":15,
					"material":6
				}
			]
		},
		{
			"name":"Cube.006",
			"primitives":[
				{
					"attributes":{
						"POSITION":37,
						"NORMAL":38,
						"TEXCOORD_0":39,
						"COLOR_0":40,
						"COLOR_1":41
					},
					"indices":21,
					"material":7
				}
			]
		},
		{
			"name":"Cube.007",
			"primitives":[
				{
					"attributes":{
						"POSITION":42,
						"NORMAL":43,
						"TEXCOORD_0":44,
						"COLOR_0":45,
						"COLOR_1":46
					},
					"indices":15,
					"material":8
				}
			]
		},
		{
			"name":"Cube.008",
			"primitives":[
				{
					"attributes":{
						"POSITION":47,
						"NORMAL":48,
						"TEXCOORD_0":49,
						"COLOR_0":50,
						"COLOR_1":51
					},
					"indices":15,
					"material":9
				}
			]
		},
		{
			"name":"Cylinder.188",
			"primitives":[
				{
					"attributes":{
						"POSITION":52,
						"NORMAL":53,
						"TEXCOORD_0":54
					},
					"indices":55,
					"material":10
				}
			]
		}
	],
	"textures":[
		{
			"sampler":0,
			"source":0
		},
		{
			"sampler":0,
			"source":1
		},
		{
			"sampler":0,
			"source":2
		},
		{
			"sampler":0,
			"source":3
		},
		{
			"sampler":0,
			"source":4
		},
		{
			"sampler":0,
			"source":5
		},
		{
			"sampler":0,
			"source":6
		},
		{
			"sampler":0,
			"source":3
		},
		{
			"sampler":0,
			"source":6
		},
		{
			"sampler":0,
			"source":5
		},
		{
			"sampler":0,
			"source":7
		}
	],
	"images":[
		{
			"mimeType":"image/png",
			"name":"SPW_Urban_Road",
			"uri":"SPW_Urban_Road.png"
		},
		{
			"mimeType":"image/png",
			"name":"SPW_Vehicle_Land_Car_Color02",
			"uri":"SPW_Vehicle_Land_Car_Color02.png"
		},
		{
			"mimeType":"image/png",
			"name":"SPW_Vehicle_Land_Muscle Car_Color03",
			"uri":"SPW_Vehicle_Land_Muscle%20Car_Color03.png"
		},
		{
			"mimeType":"image/png",
			"name":"SPW_Vehicle_Land_Car_Color03",
			"uri":"SPW_Vehicle_Land_Car_Color03.png"
		},
		{
			"mimeType":"image/png",
			"name":"SPW_Vehicle_Land_Car_Color01",
			"uri":"SPW_Vehicle_Land_Car_Color01.png"
		},
		{
			"mimeType":"image/png",
			"name":"SPW_Vehicle_Land_Muscle Car_Color02",
			"uri":"SPW_Vehicle_Land_Muscle%20Car_Color02.png"
		},
		{
			"mimeType":"image/png",
			"name":"SPW_Vehicle_Land_Muscle Car_Color01",
			"uri":"SPW_Vehicle_Land_Muscle%20Car_Color01.png"
		},
		{
			"mimeType":"image/png",
			"name":"SPW_Urban_Road Props_01",
			"uri":"SPW_Urban_Road%20Props_01.png"
		}
	],
	"accessors":[
		{
			"bufferView":0,
			"componentType":5126,
			"count":680,
			"max":[
				30.000009536743164,
				40.000003814697266,
				1.7484557019997737e-06
			],
			"min":[
				-30.000003814697266,
				-40.000003814697266,
				-0.20000174641609192
			],
			"type":"VEC3"
		},
		{
			"bufferView":1,
			"componentType":5126,
			"count":680,
			"type":"VEC3"
		},
		{
			"bufferView":2,
			"componentType":5126,
			"count":680,
			"type":"VEC2"
		},
		{
			"bufferView":3,
			"componentType":5123,
			"count":1758,
			"type":"SCALAR"
		},
		{
			"bufferView":4,
			"componentType":5126,
			"count":1276,
			"max":[
				1.529523491859436,
				3.175563097000122,
				0.002333521842956543
			],
			"min":[
				-1.5287845134735107,
				-3.255667209625244,
				-2.271066188812256
			],
			"type":"VEC3"
		},
		{
			"bufferView":5,
			"componentType":5126,
			"count":1276,
			"type":"VEC3"
		},
		{
			"bufferView":6,
			"componentType":5126,
			"count":1276,
			"type":"VEC2"
		},
		{
			"bufferView":7,
			"componentType":5121,
			"count":1276,
			"normalized":true,
			"type":"VEC4"
		},
		{
			"bufferView":8,
			"componentType":5123,
			"count":1276,
			"normalized":true,
			"type":"VEC4"
		},
		{
			"bufferView":9,
			"componentType":5123,
			"count":2280,
			"type":"SCALAR"
		},
		{
			"bufferView":10,
			"componentType":5126,
			"count":2782,
			"max":[
				1.529387354850769,
				3.208220958709717,
				0.0007680654525756836
			],
			"min":[
				-1.5289206504821777,
				-3.223008394241333,
				-2.7865028381347656
			],
			"type":"VEC3"
		},
		{
			"bufferView":11,
			"componentType":5126,
			"count":2782,
			"type":"VEC3"
		},
		{
			"bufferView":12,
			"componentType":5126,
			"count":2782,
			"type":"VEC2"
		},
		{
			"bufferView":13,
			"componentType":5121,
			"count":2782,
			"normalized":true,
			"type":"VEC4"
		},
		{
			"bufferView":14,
			"componentType":5123,
			"count":2782,
			"normalized":true,
			"type":"VEC4"
		},
		{
			"bufferView":15,
			"componentType":5123,
			"count":4728,
			"type":"SCALAR"
		},
		{
			"bufferView":16,
			"componentType":5126,
			"count":1372,
			"max":[
				1.5295277833938599,
				3.1737353801727295,
				0.005089402198791504
			],
			"min":[
				-1.528780221939087,
				-3.2574944496154785,
				-2.5031394958496094
			],
			"type":"VEC3"
		},
		{
			"bufferView":17,
			"componentType":5126,
			"count":1372,
			"type":"VEC3"
		},
		{
			"bufferView":18,
			"componentType":5126,
			"count":1372,
			"type":"VEC2"
		},
		{
			"bufferView":19,
			"componentType":5121,
			"count":1372,
			"normalized":true,
			"type":"VEC4"
		},
		{
			"bufferView":20,
			"componentType":5123,
			"count":1372,
			"normalized":true,
			"type":"VEC4"
		},
		{
			"bufferView":21,
			"componentType":5123,
			"count":2364,
			"type":"SCALAR"
		},
		{
			"bufferView":22,
			"componentType":5126,
			"count":1276,
			"max":[
				1.529523491859436,
				3.175563097000122,
				0.002333521842956543
			],
			"min":[
				-1.5287845134735107,
				-3.255667209625244,
				-2.271066188812256
			],
			"type":"VEC3"
		},
		{
			"bufferView":23,
			"componentType":5126,
			"count":1276,
			"type":"VEC3"
		},
		{
			"bufferView":24,
			"componentType":5126,
			"count":1276,
			"type":"VEC2"
		},
		{
			"bufferView":25,
			"componentType":5121,
			"count":1276,
			"normalized":true,
			"type":"VEC4"
		},
		{
			"bufferView":26,
			"componentType":5123,
			"count":1276,
			"normalized":true,
			"type":"VEC4"
		},
		{
			"bufferView":27,
			"componentType":5126,
			"count":2782,
			"max":[
				1.529387354850769,
				3.208220958709717,
				0.0007680654525756836
			],
			"min":[
				-1.5289206504821777,
				-3.223008394241333,
				-2.7865028381347656
			],
			"type":"VEC3"
		},
		{
			"bufferView":28,
			"componentType":5126,
			"count":2782,
			"type":"VEC3"
		},
		{
			"bufferView":29,
			"componentType":5126,
			"count":2782,
			"type":"VEC2"
		},
		{
			"bufferView":30,
			"componentType":5121,
			"count":2782,
			"normalized":true,
			"type":"VEC4"
		},
		{
			"bufferView":31,
			"componentType":5123,
			"count":2782,
			"normalized":true,
			"type":"VEC4"
		},
		{
			"bufferView":32,
			"componentType":5126,
			"count":2782,
			"max":[
				1.529387354850769,
				3.208220958709717,
				0.0007680654525756836
			],
			"min":[
				-1.5289206504821777,
				-3.223008394241333,
				-2.7865028381347656
			],
			"type":"VEC3"
		},
		{
			"bufferView":33,
			"componentType":5126,
			"count":2782,
			"type":"VEC3"
		},
		{
			"bufferView":34,
			"componentType":5126,
			"count":2782,
			"type":"VEC2"
		},
		{
			"bufferView":35,
			"componentType":5121,
			"count":2782,
			"normalized":true,
			"type":"VEC4"
		},
		{
			"bufferView":36,
			"componentType":5123,
			"count":2782,
			"normalized":true,
			"type":"VEC4"
		},
		{
			"bufferView":37,
			"componentType":5126,
			"count":1372,
			"max":[
				1.5295277833938599,
				3.1737353801727295,
				0.005089402198791504
			],
			"min":[
				-1.528780221939087,
				-3.2574944496154785,
				-2.5031394958496094
			],
			"type":"VEC3"
		},
		{
			"bufferView":38,
			"componentType":5126,
			"count":1372,
			"type":"VEC3"
		},
		{
			"bufferView":39,
			"componentType":5126,
			"count":1372,
			"type":"VEC2"
		},
		{
			"bufferView":40,
			"componentType":5121,
			"count":1372,
			"normalized":true,
			"type":"VEC4"
		},
		{
			"bufferView":41,
			"componentType":5123,
			"count":1372,
			"normalized":true,
			"type":"VEC4"
		},
		{
			"bufferView":42,
			"componentType":5126,
			"count":2782,
			"max":[
				1.529387354850769,
				3.208220958709717,
				0.0007680654525756836
			],
			"min":[
				-1.5289206504821777,
				-3.223008394241333,
				-2.7865028381347656
			],
			"type":"VEC3"
		},
		{
			"bufferView":43,
			"componentType":5126,
			"count":2782,
			"type":"VEC3"
		},
		{
			"bufferView":44,
			"componentType":5126,
			"count":2782,
			"type":"VEC2"
		},
		{
			"bufferView":45,
			"componentType":5121,
			"count":2782,
			"normalized":true,
			"type":"VEC4"
		},
		{
			"bufferView":46,
			"componentType":5123,
			"count":2782,
			"normalized":true,
			"type":"VEC4"
		},
		{
			"bufferView":47,
			"componentType":5126,
			"count":2782,
			"max":[
				1.529387354850769,
				3.208220958709717,
				0.0007680654525756836
			],
			"min":[
				-1.5289206504821777,
				-3.223008394241333,
				-2.7865028381347656
			],
			"type":"VEC3"
		},
		{
			"bufferView":48,
			"componentType":5126,
			"count":2782,
			"type":"VEC3"
		},
		{
			"bufferView":49,
			"componentType":5126,
			"count":2782,
			"type":"VEC2"
		},
		{
			"bufferView":50,
			"componentType":5121,
			"count":2782,
			"normalized":true,
			"type":"VEC4"
		},
		{
			"bufferView":51,
			"componentType":5123,
			"count":2782,
			"normalized":true,
			"type":"VEC4"
		},
		{
			"bufferView":52,
			"componentType":5126,
			"count":88,
			"max":[
				0.2999999523162842,
				0.05771878361701965,
				1.86652487172978e-05
			],
			"min":[
				-0.3000001311302185,
				-0.0353146493434906,
				-2.5001540184020996
			],
			"type":"VEC3"
		},
		{
			"bufferView":53,
			"componentType":5126,
			"count":88,
			"type":"VEC3"
		},
		{
			"bufferView":54,
			"componentType":5126,
			"count":88,
			"type":"VEC2"
		},
		{
			"bufferView":55,
			"componentType":5123,
			"count":144,
			"type":"SCALAR"
		}
	],
	"bufferViews":[
		{
			"buffer":0,
			"byteLength":8160,
			"byteOffset":0,
			"target":34962
		},
		{
			"buffer":0,
			"byteLength":8160,
			"byteOffset":8160,
			"target":34962
		},
		{
			"buffer":0,
			"byteLength":5440,
			"byteOffset":16320,
			"target":34962
		},
		{
			"buffer":0,
			"byteLength":3516,
			"byteOffset":21760,
			"target":34963
		},
		{
			"buffer":0,
			"byteLength":15312,
			"byteOffset":25276,
			"target":34962
		},
		{
			"buffer":0,
			"byteLength":15312,
			"byteOffset":40588,
			"target":34962
		},
		{
			"buffer":0,
			"byteLength":10208,
			"byteOffset":55900,
			"target":34962
		},
		{
			"buffer":0,
			"byteLength":5104,
			"byteOffset":66108,
			"target":34962
		},
		{
			"buffer":0,
			"byteLength":10208,
			"byteOffset":71212,
			"target":34962
		},
		{
			"buffer":0,
			"byteLength":4560,
			"byteOffset":81420,
			"target":34963
		},
		{
			"buffer":0,
			"byteLength":33384,
			"byteOffset":85980,
			"target":34962
		},
		{
			"buffer":0,
			"byteLength":33384,
			"byteOffset":119364,
			"target":34962
		},
		{
			"buffer":0,
			"byteLength":22256,
			"byteOffset":152748,
			"target":34962
		},
		{
			"buffer":0,
			"byteLength":11128,
			"byteOffset":175004,
			"target":34962
		},
		{
			"buffer":0,
			"byteLength":22256,
			"byteOffset":186132,
			"target":34962
		},
		{
			"buffer":0,
			"byteLength":9456,
			"byteOffset":208388,
			"target":34963
		},
		{
			"buffer":0,
			"byteLength":16464,
			"byteOffset":217844,
			"target":34962
		},
		{
			"buffer":0,
			"byteLength":16464,
			"byteOffset":234308,
			"target":34962
		},
		{
			"buffer":0,
			"byteLength":10976,
			"byteOffset":250772,
			"target":34962
		},
		{
			"buffer":0,
			"byteLength":5488,
			"byteOffset":261748,
			"target":34962
		},
		{
			"buffer":0,
			"byteLength":10976,
			"byteOffset":267236,
			"target":34962
		},
		{
			"buffer":0,
			"byteLength":4728,
			"byteOffset":278212,
			"target":34963
		},
		{
			"buffer":0,
			"byteLength":15312,
			"byteOffset":282940,
			"target":34962
		},
		{
			"buffer":0,
			"byteLength":15312,
			"byteOffset":298252,
			"target":34962
		},
		{
			"buffer":0,
			"byteLength":10208,
			"byteOffset":313564,
			"target":34962
		},
		{
			"buffer":0,
			"byteLength":5104,
			"byteOffset":323772,
			"target":34962
		},
		{
			"buffer":0,
			"byteLength":10208,
			"byteOffset":328876,
			"target":34962
		},
		{
			"buffer":0,
			"byteLength":33384,
			"byteOffset":339084,
			"target":34962
		},
		{
			"buffer":0,
			"byteLength":33384,
			"byteOffset":372468,
			"target":34962
		},
		{
			"buffer":0,
			"byteLength":22256,
			"byteOffset":405852,
			"target":34962
		},
		{
			"buffer":0,
			"byteLength":11128,
			"byteOffset":428108,
			"target":34962
		},
		{
			"buffer":0,
			"byteLength":22256,
			"byteOffset":439236,
			"target":34962
		},
		{
			"buffer":0,
			"byteLength":33384,
			"byteOffset":461492,
			"target":34962
		},
		{
			"buffer":0,
			"byteLength":33384,
			"byteOffset":494876,
			"target":34962
		},
		{
			"buffer":0,
			"byteLength":22256,
			"byteOffset":528260,
			"target":34962
		},
		{
			"buffer":0,
			"byteLength":11128,
			"byteOffset":550516,
			"target":34962
		},
		{
			"buffer":0,
			"byteLength":22256,
			"byteOffset":561644,
			"target":34962
		},
		{
			"buffer":0,
			"byteLength":16464,
			"byteOffset":583900,
			"target":34962
		},
		{
			"buffer":0,
			"byteLength":16464,
			"byteOffset":600364,
			"target":34962
		},
		{
			"buffer":0,
			"byteLength":10976,
			"byteOffset":616828,
			"target":34962
		},
		{
			"buffer":0,
			"byteLength":5488,
			"byteOffset":627804,
			"target":34962
		},
		{
			"buffer":0,
			"byteLength":10976,
			"byteOffset":633292,
			"target":34962
		},
		{
			"buffer":0,
			"byteLength":33384,
			"byteOffset":644268,
			"target":34962
		},
		{
			"buffer":0,
			"byteLength":33384,
			"byteOffset":677652,
			"target":34962
		},
		{
			"buffer":0,
			"byteLength":22256,
			"byteOffset":711036,
			"target":34962
		},
		{
			"buffer":0,
			"byteLength":11128,
			"byteOffset":733292,
			"target":34962
		},
		{
			"buffer":0,
			"byteLength":22256,
			"byteOffset":744420,
			"target":34962
		},
		{
			"buffer":0,
			"byteLength":33384,
			"byteOffset":766676,
			"target":34962
		},
		{
			"buffer":0,
			"byteLength":33384,
			"byteOffset":800060,
			"target":34962
		},
		{
			"buffer":0,
			"byteLength":22256,
			"byteOffset":833444,
			"target":34962
		},
		{
			"buffer":0,
			"byteLength":11128,
			"byteOffset":855700,
			"target":34962
		},
		{
			"buffer":0,
			"byteLength":22256,
			"byteOffset":866828,
			"target":34962
		},
		{
			"buffer":0,
			"byteLength":1056,
			"byteOffset":889084,
			"target":34962
		},
		{
			"buffer":0,
			"byteLength":1056,
			"byteOffset":890140,
			"target":34962
		},
		{
			"buffer":0,
			"byteLength":704,
			"byteOffset":891196,
			"target":34962
		},
		{
			"buffer":0,
			"byteLength":288,
			"byteOffset":891900,
			"target":34963
		}
	],
	"samplers":[
		{
			"magFilter":9729,
			"minFilter":9987
		}
	],
	"buffers":[
		{
			"byteLength":892188,
			"uri":"SPW_Urban_Road_Parking_Lot_Big.bin"
		}
	]
}
