{
	"asset":{
		"generator":"Khronos glTF Blender I/O v5.0.21",
		"version":"2.0"
	},
	"extensionsUsed":[
		"KHR_materials_specular"
	],
	"scene":0,
	"scenes":[
		{
			"name":"Scene",
			"nodes":[
				0
			]
		}
	],
	"nodes":[
		{
			"mesh":0,
			"name":"SPB_Hospital",
			"rotation":[
				0.7071068286895752,
				0,
				0,
				0.7071068286895752
			]
		}
	],
	"materials":[
		{
			"doubleSided":true,
			"extensions":{
				"KHR_materials_specular":{
					"specularColorFactor":[
						0.4000000059604645,
						0.4000000059604645,
						0.4000000059604645
					]
				}
			},
			"name":"SPB_Hospital",
			"pbrMetallicRoughness":{
				"baseColorTexture":{
					"index":0
				},
				"metallicFactor":0,
				"roughnessFactor":0.5527864098548889
			}
		}
	],
	"meshes":[
		{
			"name":"Cylinder.035",
			"primitives":[
				{
					"attributes":{
						"POSITION":0,
						"NORMAL":1,
						"TEXCOORD_0":2
					},
					"indices":3,
					"material":0
				}
			]
		}
	],
	"textures":[
		{
			"sampler":0,
			"source":0
		}
	],
	"images":[
		{
			"mimeType":"image/png",
			"name":"SPB_Hospital",
			"uri":"SPB_Hospital.png"
		}
	],
	"accessors":[
		{
			"bufferView":0,
			"componentType":5126,
			"count":1767,
			"max":[
				11.152325630187988,
				10.221570014953613,
				0
			],
			"min":[
				-11.152326583862305,
				-8.356851577758789,
				-16.78672981262207
			],
			"type":"VEC3"
		},
		{
			"bufferView":1,
			"componentType":5126,
			"count":1767,
			"type":"VEC3"
		},
		{
			"bufferView":2,
			"componentType":5126,
			"count":1767,
			"type":"VEC2"
		},
		{
			"bufferView":3,
			"componentType":5123,
			"count":3312,
			"type":"SCALAR"
		}
	],
	"bufferViews":[
		{
			"buffer":0,
			"byteLength":21204,
			"byteOffset":0,
			"target":34962
		},
		{
			"buffer":0,
			"byteLength":21204,
			"byteOffset":21204,
			"target":34962
		},
		{
			"buffer":0,
			"byteLength":14136,
			"byteOffset":42408,
			"target":34962
		},
		{
			"buffer":0,
			"byteLength":6624,
			"byteOffset":56544,
			"target":34963
		}
	],
	"samplers":[
		{
			"magFilter":9729,
			"minFilter":9987
		}
	],
	"buffers":[
		{
			"byteLength":63168,
			"uri":"SPB_Hospital.bin"
		}
	]
}
