{
	"asset":{
		"generator":"Khronos glTF Blender I/O v5.0.21",
		"version":"2.0"
	},
	"extensionsUsed":[
		"KHR_materials_specular"
	],
	"scene":0,
	"scenes":[
		{
			"name":"Scene",
			"nodes":[
				0
			]
		}
	],
	"nodes":[
		{
			"mesh":0,
			"name":"SPW_Vehicle_Land_Static_Truck Container",
			"rotation":[
				0.7071068286895752,
				0,
				0,
				0.7071068286895752
			]
		}
	],
	"materials":[
		{
			"doubleSided":true,
			"extensions":{
				"KHR_materials_specular":{
					"specularColorFactor":[
						0.4000000059604645,
						0.4000000059604645,
						0.4000000059604645
					]
				}
			},
			"name":"SPW_Vehicle_Land_Truck Container",
			"pbrMetallicRoughness":{
				"baseColorTexture":{
					"index":0
				},
				"metallicFactor":0.5864197611808777,
				"roughnessFactor":0.5527864098548889
			}
		},
		{
			"doubleSided":true,
			"extensions":{
				"KHR_materials_specular":{
					"specularColorFactor":[
						0.4000000059604645,
						0.4000000059604645,
						0.4000000059604645
					]
				}
			},
			"name":"SPW_Urban_Props_Container",
			"pbrMetallicRoughness":{
				"baseColorFactor":[
					0.800000011920929,
					0.800000011920929,
					0.800000011920929,
					1
				],
				"metallicFactor":0,
				"roughnessFactor":0.5527864098548889
			}
		}
	],
	"meshes":[
		{
			"name":"Cube.000",
			"primitives":[
				{
					"attributes":{
						"POSITION":0,
						"NORMAL":1,
						"TEXCOORD_0":2
					},
					"indices":3,
					"material":0
				},
				{
					"attributes":{
						"POSITION":4,
						"NORMAL":5,
						"TEXCOORD_0":6
					},
					"indices":7,
					"material":1
				}
			]
		}
	],
	"textures":[
		{
			"sampler":0,
			"source":0
		}
	],
	"images":[
		{
			"mimeType":"image/png",
			"name":"SPW_Vehicle_Land_Truck Container_Color01",
			"uri":"SPW_Vehicle_Land_Truck%20Container_Color01.png"
		}
	],
	"accessors":[
		{
			"bufferView":0,
			"componentType":5126,
			"count":2895,
			"max":[
				1.9682247638702393,
				4.660552024841309,
				0.00016164779663085938
			],
			"min":[
				-1.9682714939117432,
				-9.219013214111328,
				-4.301479339599609
			],
			"type":"VEC3"
		},
		{
			"bufferView":1,
			"componentType":5126,
			"count":2895,
			"type":"VEC3"
		},
		{
			"bufferView":2,
			"componentType":5126,
			"count":2895,
			"type":"VEC2"
		},
		{
			"bufferView":3,
			"componentType":5123,
			"count":4968,
			"type":"SCALAR"
		},
		{
			"bufferView":4,
			"componentType":5126,
			"count":24,
			"max":[
				1.9500010013580322,
				-0.2029860019683838,
				-1.5867279767990112
			],
			"min":[
				-1.950000524520874,
				-9.12298583984375,
				-4.886728286743164
			],
			"type":"VEC3"
		},
		{
			"bufferView":5,
			"componentType":5126,
			"count":24,
			"type":"VEC3"
		},
		{
			"bufferView":6,
			"componentType":5126,
			"count":24,
			"type":"VEC2"
		},
		{
			"bufferView":7,
			"componentType":5123,
			"count":36,
			"type":"SCALAR"
		}
	],
	"bufferViews":[
		{
			"buffer":0,
			"byteLength":34740,
			"byteOffset":0,
			"target":34962
		},
		{
			"buffer":0,
			"byteLength":34740,
			"byteOffset":34740,
			"target":34962
		},
		{
			"buffer":0,
			"byteLength":23160,
			"byteOffset":69480,
			"target":34962
		},
		{
			"buffer":0,
			"byteLength":9936,
			"byteOffset":92640,
			"target":34963
		},
		{
			"buffer":0,
			"byteLength":288,
			"byteOffset":102576,
			"target":34962
		},
		{
			"buffer":0,
			"byteLength":288,
			"byteOffset":102864,
			"target":34962
		},
		{
			"buffer":0,
			"byteLength":192,
			"byteOffset":103152,
			"target":34962
		},
		{
			"buffer":0,
			"byteLength":72,
			"byteOffset":103344,
			"target":34963
		}
	],
	"samplers":[
		{
			"magFilter":9729,
			"minFilter":9987
		}
	],
	"buffers":[
		{
			"byteLength":103416,
			"uri":"SPW_Vehicle_Land_Static_Truck_Container.bin"
		}
	]
}
