{
	"asset":{
		"generator":"Khronos glTF Blender I/O v5.0.21",
		"version":"2.0"
	},
	"extensionsUsed":[
		"KHR_materials_specular"
	],
	"scene":0,
	"scenes":[
		{
			"name":"Scene",
			"nodes":[
				0
			]
		}
	],
	"nodes":[
		{
			"mesh":0,
			"name":"SPW_Urban_Bldg_Stadium",
			"rotation":[
				0.7071068286895752,
				0,
				0,
				0.7071068286895752
			],
			"scale":[
				1.0034807920455933,
				1.0034807920455933,
				1.0034807920455933
			]
		}
	],
	"materials":[
		{
			"doubleSided":true,
			"extensions":{
				"KHR_materials_specular":{
					"specularColorFactor":[
						0.4000000059604645,
						0.4000000059604645,
						0.4000000059604645
					]
				}
			},
			"name":"SPW_Urban_Bldg_Stadium",
			"pbrMetallicRoughness":{
				"baseColorTexture":{
					"index":0
				},
				"metallicFactor":0,
				"roughnessFactor":0.5527864098548889
			}
		}
	],
	"meshes":[
		{
			"name":"Plane.006",
			"primitives":[
				{
					"attributes":{
						"POSITION":0,
						"NORMAL":1,
						"TEXCOORD_0":2
					},
					"indices":3,
					"material":0
				}
			]
		}
	],
	"textures":[
		{
			"sampler":0,
			"source":0
		}
	],
	"images":[
		{
			"mimeType":"image/png",
			"name":"SPW_Urban_Bldg_Stadium",
			"uri":"SPW_Urban_Bldg_Stadium.png"
		}
	],
	"accessors":[
		{
			"bufferView":0,
			"componentType":5126,
			"count":11038,
			"max":[
				25.13280487060547,
				24.342750549316406,
				-8.225202350331529e-07
			],
			"min":[
				-25.132802963256836,
				-20.106250762939453,
				-12.400004386901855
			],
			"type":"VEC3"
		},
		{
			"bufferView":1,
			"componentType":5126,
			"count":11038,
			"type":"VEC3"
		},
		{
			"bufferView":2,
			"componentType":5126,
			"count":11038,
			"type":"VEC2"
		},
		{
			"bufferView":3,
			"componentType":5123,
			"count":18024,
			"type":"SCALAR"
		}
	],
	"bufferViews":[
		{
			"buffer":0,
			"byteLength":132456,
			"byteOffset":0,
			"target":34962
		},
		{
			"buffer":0,
			"byteLength":132456,
			"byteOffset":132456,
			"target":34962
		},
		{
			"buffer":0,
			"byteLength":88304,
			"byteOffset":264912,
			"target":34962
		},
		{
			"buffer":0,
			"byteLength":36048,
			"byteOffset":353216,
			"target":34963
		}
	],
	"samplers":[
		{
			"magFilter":9729,
			"minFilter":9987
		}
	],
	"buffers":[
		{
			"byteLength":389264,
			"uri":"SPW_Urban_Bldg_Stadium.bin"
		}
	]
}
