{
	"asset":{
		"generator":"Khronos glTF Blender I/O v5.0.21",
		"version":"2.0"
	},
	"extensionsUsed":[
		"KHR_materials_specular"
	],
	"scene":0,
	"scenes":[
		{
			"name":"Scene",
			"nodes":[
				0,
				1
			]
		}
	],
	"nodes":[
		{
			"mesh":0,
			"name":"SPW_Urban_Bldg_11",
			"rotation":[
				0.7071068286895752,
				0,
				0,
				0.7071068286895752
			]
		},
		{
			"mesh":1,
			"name":"SPW_Urban_Text_Bank",
			"rotation":[
				0,
				-0.7071068286895752,
				0.7071068286895752,
				3.090862321641907e-08
			],
			"scale":[
				3.8639020919799805,
				1,
				3.8639020919799805
			],
			"translation":[
				0,
				9.235184669494629,
				-13.372200012207031
			]
		}
	],
	"materials":[
		{
			"doubleSided":true,
			"extensions":{
				"KHR_materials_specular":{
					"specularColorFactor":[
						0.4000000059604645,
						0.4000000059604645,
						0.4000000059604645
					]
				}
			},
			"name":"SPW_Urban_Bldg_11",
			"pbrMetallicRoughness":{
				"baseColorTexture":{
					"index":0
				},
				"metallicFactor":0,
				"roughnessFactor":0.5527864098548889
			}
		},
		{
			"doubleSided":true,
			"extensions":{
				"KHR_materials_specular":{
					"specularColorFactor":[
						0.4000000059604645,
						0.4000000059604645,
						0.4000000059604645
					]
				}
			},
			"name":"SPW_Urban_Text",
			"pbrMetallicRoughness":{
				"baseColorFactor":[
					0.8000074625015259,
					0.46695685386657715,
					0,
					1
				],
				"metallicFactor":0,
				"roughnessFactor":0.5527864098548889
			}
		}
	],
	"meshes":[
		{
			"name":"Cylinder.929",
			"primitives":[
				{
					"attributes":{
						"POSITION":0,
						"NORMAL":1,
						"TEXCOORD_0":2
					},
					"indices":3,
					"material":0
				}
			]
		},
		{
			"name":"Plane.045",
			"primitives":[
				{
					"attributes":{
						"POSITION":4,
						"NORMAL":5
					},
					"indices":6,
					"material":1
				}
			]
		}
	],
	"textures":[
		{
			"sampler":0,
			"source":0
		}
	],
	"images":[
		{
			"mimeType":"image/png",
			"name":"SPW_Urban_Bldg_11_Color03",
			"uri":"SPW_Urban_Bldg_11_Color03.png"
		}
	],
	"accessors":[
		{
			"bufferView":0,
			"componentType":5126,
			"count":1368,
			"max":[
				16.10066032409668,
				9.100659370422363,
				0.0001031188658089377
			],
			"min":[
				-16.10066032409668,
				-13.565354347229004,
				-12.300003051757812
			],
			"type":"VEC3"
		},
		{
			"bufferView":1,
			"componentType":5126,
			"count":1368,
			"type":"VEC3"
		},
		{
			"bufferView":2,
			"componentType":5126,
			"count":1368,
			"type":"VEC2"
		},
		{
			"bufferView":3,
			"componentType":5123,
			"count":2220,
			"type":"SCALAR"
		},
		{
			"bufferView":4,
			"componentType":5126,
			"count":798,
			"max":[
				1.2109297513961792,
				0.050000015646219254,
				6.297826621448621e-05
			],
			"min":[
				-1.1693602800369263,
				-0.05000007897615433,
				-0.563528299331665
			],
			"type":"VEC3"
		},
		{
			"bufferView":5,
			"componentType":5126,
			"count":798,
			"type":"VEC3"
		},
		{
			"bufferView":6,
			"componentType":5123,
			"count":1572,
			"type":"SCALAR"
		}
	],
	"bufferViews":[
		{
			"buffer":0,
			"byteLength":16416,
			"byteOffset":0,
			"target":34962
		},
		{
			"buffer":0,
			"byteLength":16416,
			"byteOffset":16416,
			"target":34962
		},
		{
			"buffer":0,
			"byteLength":10944,
			"byteOffset":32832,
			"target":34962
		},
		{
			"buffer":0,
			"byteLength":4440,
			"byteOffset":43776,
			"target":34963
		},
		{
			"buffer":0,
			"byteLength":9576,
			"byteOffset":48216,
			"target":34962
		},
		{
			"buffer":0,
			"byteLength":9576,
			"byteOffset":57792,
			"target":34962
		},
		{
			"buffer":0,
			"byteLength":3144,
			"byteOffset":67368,
			"target":34963
		}
	],
	"samplers":[
		{
			"magFilter":9729,
			"minFilter":9987
		}
	],
	"buffers":[
		{
			"byteLength":70512,
			"uri":"SPW_Urban_Bldg_Bank.bin"
		}
	]
}
