{
	"asset":{
		"generator":"Khronos glTF Blender I/O v5.0.21",
		"version":"2.0"
	},
	"extensionsUsed":[
		"KHR_materials_specular"
	],
	"scene":0,
	"scenes":[
		{
			"name":"Scene",
			"nodes":[
				0
			]
		}
	],
	"nodes":[
		{
			"mesh":0,
			"name":"SPW_Vehicle_Land_Static_Truck Log",
			"rotation":[
				0.7071068286895752,
				0,
				0,
				0.7071068286895752
			]
		}
	],
	"materials":[
		{
			"doubleSided":true,
			"extensions":{
				"KHR_materials_specular":{
					"specularColorFactor":[
						0.4000000059604645,
						0.4000000059604645,
						0.4000000059604645
					]
				}
			},
			"name":"SPW_Vehicle_Land_Truck Log",
			"pbrMetallicRoughness":{
				"baseColorTexture":{
					"index":0
				},
				"metallicFactor":0,
				"roughnessFactor":0.5527864098548889
			}
		}
	],
	"meshes":[
		{
			"name":"Cube.000",
			"primitives":[
				{
					"attributes":{
						"POSITION":0,
						"NORMAL":1,
						"TEXCOORD_0":2
					},
					"indices":3,
					"material":0
				}
			]
		}
	],
	"textures":[
		{
			"sampler":0,
			"source":0
		}
	],
	"images":[
		{
			"mimeType":"image/png",
			"name":"SPW_Vehicle_Land_Truck Log_Color03",
			"uri":"SPW_Vehicle_Land_Truck%20Log_Color03.png"
		}
	],
	"accessors":[
		{
			"bufferView":0,
			"componentType":5126,
			"count":3627,
			"max":[
				1.9682247638702393,
				4.660552024841309,
				-0.001527547836303711
			],
			"min":[
				-1.9682714939117432,
				-9.219013214111328,
				-4.303168773651123
			],
			"type":"VEC3"
		},
		{
			"bufferView":1,
			"componentType":5126,
			"count":3627,
			"type":"VEC3"
		},
		{
			"bufferView":2,
			"componentType":5126,
			"count":3627,
			"type":"VEC2"
		},
		{
			"bufferView":3,
			"componentType":5123,
			"count":6108,
			"type":"SCALAR"
		}
	],
	"bufferViews":[
		{
			"buffer":0,
			"byteLength":43524,
			"byteOffset":0,
			"target":34962
		},
		{
			"buffer":0,
			"byteLength":43524,
			"byteOffset":43524,
			"target":34962
		},
		{
			"buffer":0,
			"byteLength":29016,
			"byteOffset":87048,
			"target":34962
		},
		{
			"buffer":0,
			"byteLength":12216,
			"byteOffset":116064,
			"target":34963
		}
	],
	"samplers":[
		{
			"magFilter":9729,
			"minFilter":9987
		}
	],
	"buffers":[
		{
			"byteLength":128280,
			"uri":"SPW_Vehicle_Land_Static_Truck_Log.bin"
		}
	]
}
