{
	"asset":{
		"generator":"Khronos glTF Blender I/O v5.0.21",
		"version":"2.0"
	},
	"extensionsUsed":[
		"KHR_materials_specular"
	],
	"scene":0,
	"scenes":[
		{
			"name":"Scene",
			"nodes":[
				0
			]
		}
	],
	"nodes":[
		{
			"mesh":0,
			"name":"SPW_Urban_Bldg_01",
			"rotation":[
				0.70710688829422,
				0,
				0,
				0.7071066498756409
			],
			"scale":[
				0.2938668429851532,
				0.2938668727874756,
				0.2938668727874756
			]
		}
	],
	"materials":[
		{
			"doubleSided":true,
			"extensions":{
				"KHR_materials_specular":{
					"specularColorFactor":[
						2.0,
						2.0,
						2.0
					]
				}
			},
			"name":"SPW_Urban_Bldg_01",
			"pbrMetallicRoughness":{
				"baseColorTexture":{
					"index":0
				},
				"metallicFactor":0,
				"roughnessFactor":0.5527864098548889
			}
		}
	],
	"meshes":[
		{
			"name":"Cube.1521",
			"primitives":[
				{
					"attributes":{
						"POSITION":0,
						"NORMAL":1,
						"TEXCOORD_0":2
					},
					"indices":3,
					"material":0
				}
			]
		}
	],
	"textures":[
		{
			"sampler":0,
			"source":0
		}
	],
	"images":[
		{
			"mimeType":"image/png",
			"name":"SPW_Urban_Bldg_01_Color01",
			"uri":"SPW_Urban_Bldg_01_Color01.png"
		}
	],
	"accessors":[
		{
			"bufferView":0,
			"componentType":5126,
			"count":1004,
			"max":[
				10.500000953674316,
				7.147060394287109,
				4.295929443287605e-07
			],
			"min":[
				-10.5,
				-10.352940559387207,
				-18.375
			],
			"type":"VEC3"
		},
		{
			"bufferView":1,
			"componentType":5126,
			"count":1004,
			"type":"VEC3"
		},
		{
			"bufferView":2,
			"componentType":5126,
			"count":1004,
			"type":"VEC2"
		},
		{
			"bufferView":3,
			"componentType":5123,
			"count":1728,
			"type":"SCALAR"
		}
	],
	"bufferViews":[
		{
			"buffer":0,
			"byteLength":12048,
			"byteOffset":0,
			"target":34962
		},
		{
			"buffer":0,
			"byteLength":12048,
			"byteOffset":12048,
			"target":34962
		},
		{
			"buffer":0,
			"byteLength":8032,
			"byteOffset":24096,
			"target":34962
		},
		{
			"buffer":0,
			"byteLength":3456,
			"byteOffset":32128,
			"target":34963
		}
	],
	"samplers":[
		{
			"magFilter":9729,
			"minFilter":9987
		}
	],
	"buffers":[
		{
			"byteLength":35584,
			"uri":"SPW_Urban_Bldg_01.bin"
		}
	]
}
