{
	"asset":{
		"generator":"Khronos glTF Blender I/O v5.0.21",
		"version":"2.0"
	},
	"extensionsUsed":[
		"KHR_materials_specular"
	],
	"scene":0,
	"scenes":[
		{
			"name":"Scene",
			"nodes":[
				0
			]
		}
	],
	"nodes":[
		{
			"mesh":0,
			"name":"SPW_Urban_Bldg_04",
			"rotation":[
				0.7071068286895752,
				0,
				0,
				0.7071068286895752
			]
		}
	],
	"materials":[
		{
			"doubleSided":true,
			"extensions":{
				"KHR_materials_specular":{
					"specularColorFactor":[
						0.4000000059604645,
						0.4000000059604645,
						0.4000000059604645
					]
				}
			},
			"name":"SPW_Urban_Bldg_04",
			"pbrMetallicRoughness":{
				"baseColorTexture":{
					"index":0
				},
				"metallicFactor":0,
				"roughnessFactor":0.5527864098548889
			}
		}
	],
	"meshes":[
		{
			"name":"Cylinder.706",
			"primitives":[
				{
					"attributes":{
						"POSITION":0,
						"NORMAL":1,
						"TEXCOORD_0":2
					},
					"indices":3,
					"material":0
				}
			]
		}
	],
	"textures":[
		{
			"sampler":0,
			"source":0
		}
	],
	"images":[
		{
			"mimeType":"image/png",
			"name":"SPW_Urban_Bldg_04_Color01",
			"uri":"SPW_Urban_Bldg_04_Color01.png"
		}
	],
	"accessors":[
		{
			"bufferView":0,
			"componentType":5126,
			"count":2761,
			"max":[
				10.944884300231934,
				9.10895824432373,
				0.0024500915315002203
			],
			"min":[
				-9.108957290649414,
				-10.94488525390625,
				-38.45000076293945
			],
			"type":"VEC3"
		},
		{
			"bufferView":1,
			"componentType":5126,
			"count":2761,
			"type":"VEC3"
		},
		{
			"bufferView":2,
			"componentType":5126,
			"count":2761,
			"type":"VEC2"
		},
		{
			"bufferView":3,
			"componentType":5123,
			"count":4830,
			"type":"SCALAR"
		}
	],
	"bufferViews":[
		{
			"buffer":0,
			"byteLength":33132,
			"byteOffset":0,
			"target":34962
		},
		{
			"buffer":0,
			"byteLength":33132,
			"byteOffset":33132,
			"target":34962
		},
		{
			"buffer":0,
			"byteLength":22088,
			"byteOffset":66264,
			"target":34962
		},
		{
			"buffer":0,
			"byteLength":9660,
			"byteOffset":88352,
			"target":34963
		}
	],
	"samplers":[
		{
			"magFilter":9729,
			"minFilter":9987
		}
	],
	"buffers":[
		{
			"byteLength":98012,
			"uri":"SPW_Urban_Bldg_04.bin"
		}
	]
}
