{
	"asset":{
		"generator":"Khronos glTF Blender I/O v5.0.21",
		"version":"2.0"
	},
	"extensionsUsed":[
		"KHR_materials_specular"
	],
	"scene":0,
	"scenes":[
		{
			"name":"Scene",
			"nodes":[
				0,
				1,
				2,
				3
			]
		}
	],
	"nodes":[
		{
			"mesh":0,
			"name":"SPW_Urban_Props_Bus Stop",
			"rotation":[
				0.7071068286895752,
				0,
				0,
				0.7071068286895752
			]
		},
		{
			"mesh":1,
			"name":"SPW_Urban_Props_Bench_01",
			"rotation":[
				0.7071068286895752,
				0,
				0,
				0.7071068286895752
			],
			"translation":[
				-2.556086778640747,
				-0.0008974466472864151,
				0.3731573820114136
			]
		},
		{
			"mesh":2,
			"name":"SPW_Urban_Props_Bench_01.001",
			"rotation":[
				0.7071068286895752,
				0,
				0,
				0.7071068286895752
			],
			"translation":[
				0.08506862819194794,
				0.010373871773481369,
				0.380186527967453
			]
		},
		{
			"mesh":3,
			"name":"SPW_Urban_Props_Bench_01.002",
			"rotation":[
				0.7071068286895752,
				0,
				0,
				0.7071068286895752
			],
			"translation":[
				2.750248432159424,
				0.0006446484476327896,
				0.3728857934474945
			]
		}
	],
	"materials":[
		{
			"doubleSided":true,
			"extensions":{
				"KHR_materials_specular":{
					"specularColorFactor":[
						0.4000000059604645,
						0.4000000059604645,
						0.4000000059604645
					]
				}
			},
			"name":"SPW_Urban_Props",
			"pbrMetallicRoughness":{
				"baseColorTexture":{
					"index":0
				},
				"metallicFactor":0,
				"roughnessFactor":0.5527864098548889
			}
		},
		{
			"doubleSided":true,
			"extensions":{
				"KHR_materials_specular":{
					"specularColorFactor":[
						0.4000000059604645,
						0.4000000059604645,
						0.4000000059604645
					]
				}
			},
			"name":"SPW_Urban_Props.001",
			"pbrMetallicRoughness":{
				"baseColorTexture":{
					"index":1
				},
				"metallicFactor":0,
				"roughnessFactor":0.5527864098548889
			}
		},
		{
			"doubleSided":true,
			"extensions":{
				"KHR_materials_specular":{
					"specularColorFactor":[
						0.4000000059604645,
						0.4000000059604645,
						0.4000000059604645
					]
				}
			},
			"name":"SPW_Urban_Props.004",
			"pbrMetallicRoughness":{
				"baseColorTexture":{
					"index":2
				},
				"metallicFactor":0,
				"roughnessFactor":0.5527864098548889
			}
		},
		{
			"doubleSided":true,
			"extensions":{
				"KHR_materials_specular":{
					"specularColorFactor":[
						0.4000000059604645,
						0.4000000059604645,
						0.4000000059604645
					]
				}
			},
			"name":"SPW_Urban_Props.005",
			"pbrMetallicRoughness":{
				"baseColorTexture":{
					"index":3
				},
				"metallicFactor":0,
				"roughnessFactor":0.5527864098548889
			}
		}
	],
	"meshes":[
		{
			"name":"Cube.021",
			"primitives":[
				{
					"attributes":{
						"POSITION":0,
						"NORMAL":1,
						"TEXCOORD_0":2
					},
					"indices":3,
					"material":0
				}
			]
		},
		{
			"name":"Cube.051",
			"primitives":[
				{
					"attributes":{
						"POSITION":4,
						"NORMAL":5,
						"TEXCOORD_0":6
					},
					"indices":7,
					"material":1
				}
			]
		},
		{
			"name":"Cube.001",
			"primitives":[
				{
					"attributes":{
						"POSITION":8,
						"NORMAL":9,
						"TEXCOORD_0":10
					},
					"indices":7,
					"material":2
				}
			]
		},
		{
			"name":"Cube.002",
			"primitives":[
				{
					"attributes":{
						"POSITION":11,
						"NORMAL":12,
						"TEXCOORD_0":13
					},
					"indices":7,
					"material":3
				}
			]
		}
	],
	"textures":[
		{
			"sampler":0,
			"source":0
		},
		{
			"sampler":0,
			"source":0
		},
		{
			"sampler":0,
			"source":0
		},
		{
			"sampler":0,
			"source":0
		}
	],
	"images":[
		{
			"mimeType":"image/png",
			"name":"SPW_Urban_Props",
			"uri":"SPW_Urban_Props.png"
		}
	],
	"accessors":[
		{
			"bufferView":0,
			"componentType":5126,
			"count":944,
			"max":[
				4.5,
				1.8283910751342773,
				-6.301813846221194e-05
			],
			"min":[
				-4.500000953674316,
				-1.7671992778778076,
				-4.517800331115723
			],
			"type":"VEC3"
		},
		{
			"bufferView":1,
			"componentType":5126,
			"count":944,
			"type":"VEC3"
		},
		{
			"bufferView":2,
			"componentType":5126,
			"count":944,
			"type":"VEC2"
		},
		{
			"bufferView":3,
			"componentType":5123,
			"count":1416,
			"type":"SCALAR"
		},
		{
			"bufferView":4,
			"componentType":5126,
			"count":216,
			"max":[
				1.25,
				0.32499998807907104,
				-6.88445579726249e-05
			],
			"min":[
				-1.25,
				-0.32500001788139343,
				-0.5435497164726257
			],
			"type":"VEC3"
		},
		{
			"bufferView":5,
			"componentType":5126,
			"count":216,
			"type":"VEC3"
		},
		{
			"bufferView":6,
			"componentType":5126,
			"count":216,
			"type":"VEC2"
		},
		{
			"bufferView":7,
			"componentType":5123,
			"count":324,
			"type":"SCALAR"
		},
		{
			"bufferView":8,
			"componentType":5126,
			"count":216,
			"max":[
				1.25,
				0.32499998807907104,
				-6.88445579726249e-05
			],
			"min":[
				-1.25,
				-0.32500001788139343,
				-0.5435497164726257
			],
			"type":"VEC3"
		},
		{
			"bufferView":9,
			"componentType":5126,
			"count":216,
			"type":"VEC3"
		},
		{
			"bufferView":10,
			"componentType":5126,
			"count":216,
			"type":"VEC2"
		},
		{
			"bufferView":11,
			"componentType":5126,
			"count":216,
			"max":[
				1.25,
				0.32499998807907104,
				-6.88445579726249e-05
			],
			"min":[
				-1.25,
				-0.32500001788139343,
				-0.5435497164726257
			],
			"type":"VEC3"
		},
		{
			"bufferView":12,
			"componentType":5126,
			"count":216,
			"type":"VEC3"
		},
		{
			"bufferView":13,
			"componentType":5126,
			"count":216,
			"type":"VEC2"
		}
	],
	"bufferViews":[
		{
			"buffer":0,
			"byteLength":11328,
			"byteOffset":0,
			"target":34962
		},
		{
			"buffer":0,
			"byteLength":11328,
			"byteOffset":11328,
			"target":34962
		},
		{
			"buffer":0,
			"byteLength":7552,
			"byteOffset":22656,
			"target":34962
		},
		{
			"buffer":0,
			"byteLength":2832,
			"byteOffset":30208,
			"target":34963
		},
		{
			"buffer":0,
			"byteLength":2592,
			"byteOffset":33040,
			"target":34962
		},
		{
			"buffer":0,
			"byteLength":2592,
			"byteOffset":35632,
			"target":34962
		},
		{
			"buffer":0,
			"byteLength":1728,
			"byteOffset":38224,
			"target":34962
		},
		{
			"buffer":0,
			"byteLength":648,
			"byteOffset":39952,
			"target":34963
		},
		{
			"buffer":0,
			"byteLength":2592,
			"byteOffset":40600,
			"target":34962
		},
		{
			"buffer":0,
			"byteLength":2592,
			"byteOffset":43192,
			"target":34962
		},
		{
			"buffer":0,
			"byteLength":1728,
			"byteOffset":45784,
			"target":34962
		},
		{
			"buffer":0,
			"byteLength":2592,
			"byteOffset":47512,
			"target":34962
		},
		{
			"buffer":0,
			"byteLength":2592,
			"byteOffset":50104,
			"target":34962
		},
		{
			"buffer":0,
			"byteLength":1728,
			"byteOffset":52696,
			"target":34962
		}
	],
	"samplers":[
		{
			"magFilter":9729,
			"minFilter":9987
		}
	],
	"buffers":[
		{
			"byteLength":54424,
			"uri":"SPW_Urban_Props_Bus_Stop.bin"
		}
	]
}
