{
	"asset":{
		"generator":"Khronos glTF Blender I/O v5.1.18",
		"version":"2.0"
	},
	"extensionsUsed":[
		"KHR_materials_specular"
	],
	"scene":0,
	"scenes":[
		{
			"name":"Scene",
			"nodes":[
				0,
				1,
				2
			]
		}
	],
	"nodes":[
		{
			"mesh":0,
			"name":"SPW_Terrain_Water",
			"rotation":[
				0.70710688829422,
				0,
				0,
				0.7071066498756409
			],
			"scale":[
				7,
				7.999999523162842,
				0.6078529357910156
			]
		},
		{
			"mesh":1,
			"name":"SPW_Vehicle_Water_Passenger Ship_Color01.003",
			"rotation":[
				0.7071068286895752,
				0,
				0,
				0.7071068286895752
			],
			"scale":[
				2.1683542728424072,
				2.121375799179077,
				2.2184126377105713
			],
			"translation":[
				-48.75161361694336,
				0.2189602255821228,
				0.14816398918628693
			]
		},
		{
			"mesh":2,
			"name":"SPW_Terrain_Sand_Flat",
			"rotation":[
				0.7071068286895752,
				0,
				0,
				0.7071068286895752
			],
			"scale":[
				1.517951250076294,
				8,
				1
			],
			"translation":[
				85,
				0,
				0.36619898676872253
			]
		}
	],
	"materials":[
		{
			"doubleSided":true,
			"extensions":{
				"KHR_materials_specular":{
					"specularColorFactor":[
						0.4000000059604645,
						0.4000000059604645,
						0.4000000059604645
					]
				}
			},
			"name":"SPW_Natures_02",
			"pbrMetallicRoughness":{
				"baseColorTexture":{
					"index":0
				},
				"metallicFactor":0,
				"roughnessFactor":0.5527864098548889
			}
		},
		{
			"alphaMode":"BLEND",
			"doubleSided":true,
			"name":"SPW_Vehicle_Water_Passenger Ship_Color01",
			"pbrMetallicRoughness":{
				"baseColorTexture":{
					"index":1
				},
				"metallicFactor":0,
				"roughnessFactor":0.690034806728363
			}
		},
		{
			"doubleSided":true,
			"extensions":{
				"KHR_materials_specular":{
					"specularColorFactor":[
						0.4000000059604645,
						0.4000000059604645,
						0.4000000059604645
					]
				}
			},
			"name":"SPW_Natures_02.001",
			"pbrMetallicRoughness":{
				"baseColorTexture":{
					"index":2
				},
				"metallicFactor":0,
				"roughnessFactor":0.5527864098548889
			}
		}
	],
	"meshes":[
		{
			"name":"Plane.009",
			"primitives":[
				{
					"attributes":{
						"POSITION":0,
						"NORMAL":1,
						"TEXCOORD_0":2
					},
					"indices":3,
					"material":0
				}
			]
		},
		{
			"name":"Cube.5330",
			"primitives":[
				{
					"attributes":{
						"POSITION":4,
						"NORMAL":5,
						"TEXCOORD_0":6
					},
					"indices":7,
					"material":1
				}
			]
		},
		{
			"name":"Plane.001",
			"primitives":[
				{
					"attributes":{
						"POSITION":8,
						"NORMAL":9,
						"TEXCOORD_0":10
					},
					"indices":3,
					"material":2
				}
			]
		}
	],
	"textures":[
		{
			"sampler":0,
			"source":0
		},
		{
			"sampler":0,
			"source":1
		},
		{
			"sampler":0,
			"source":0
		}
	],
	"images":[
		{
			"mimeType":"image/png",
			"name":"SPW_Natures_02",
			"uri":"SPW_Natures_02.png"
		},
		{
			"mimeType":"image/png",
			"name":"SPW_Vehicle_Water_Passenger Ship_Color01",
			"uri":"SPW_Vehicle_Water_Passenger%20Ship_Color01.png"
		}
	],
	"accessors":[
		{
			"bufferView":0,
			"componentType":5126,
			"count":4,
			"max":[
				10,
				10,
				4.37113897078234e-07
			],
			"min":[
				-10,
				-10,
				-4.37113897078234e-07
			],
			"type":"VEC3"
		},
		{
			"bufferView":1,
			"componentType":5126,
			"count":4,
			"type":"VEC3"
		},
		{
			"bufferView":2,
			"componentType":5126,
			"count":4,
			"type":"VEC2"
		},
		{
			"bufferView":3,
			"componentType":5123,
			"count":6,
			"type":"SCALAR"
		},
		{
			"bufferView":4,
			"componentType":5126,
			"count":500,
			"max":[
				6.000000953674316,
				24.621936798095703,
				6.940521757314855e-07
			],
			"min":[
				-6.000000953674316,
				-17.378063201904297,
				-15.936599731445312
			],
			"type":"VEC3"
		},
		{
			"bufferView":5,
			"componentType":5126,
			"count":500,
			"type":"VEC3"
		},
		{
			"bufferView":6,
			"componentType":5126,
			"count":500,
			"type":"VEC2"
		},
		{
			"bufferView":7,
			"componentType":5123,
			"count":852,
			"type":"SCALAR"
		},
		{
			"bufferView":8,
			"componentType":5126,
			"count":4,
			"max":[
				10,
				10,
				4.37113897078234e-07
			],
			"min":[
				-10,
				-10,
				-4.37113897078234e-07
			],
			"type":"VEC3"
		},
		{
			"bufferView":9,
			"componentType":5126,
			"count":4,
			"type":"VEC3"
		},
		{
			"bufferView":10,
			"componentType":5126,
			"count":4,
			"type":"VEC2"
		}
	],
	"bufferViews":[
		{
			"buffer":0,
			"byteLength":48,
			"byteOffset":0,
			"target":34962
		},
		{
			"buffer":0,
			"byteLength":48,
			"byteOffset":48,
			"target":34962
		},
		{
			"buffer":0,
			"byteLength":32,
			"byteOffset":96,
			"target":34962
		},
		{
			"buffer":0,
			"byteLength":12,
			"byteOffset":128,
			"target":34963
		},
		{
			"buffer":0,
			"byteLength":6000,
			"byteOffset":140,
			"target":34962
		},
		{
			"buffer":0,
			"byteLength":6000,
			"byteOffset":6140,
			"target":34962
		},
		{
			"buffer":0,
			"byteLength":4000,
			"byteOffset":12140,
			"target":34962
		},
		{
			"buffer":0,
			"byteLength":1704,
			"byteOffset":16140,
			"target":34963
		},
		{
			"buffer":0,
			"byteLength":48,
			"byteOffset":17844,
			"target":34962
		},
		{
			"buffer":0,
			"byteLength":48,
			"byteOffset":17892,
			"target":34962
		},
		{
			"buffer":0,
			"byteLength":32,
			"byteOffset":17940,
			"target":34962
		}
	],
	"samplers":[
		{
			"magFilter":9729,
			"minFilter":9987
		}
	],
	"buffers":[
		{
			"byteLength":17972,
			"uri":"SPW_Nature_Water_Front.bin"
		}
	]
}
