{
	"asset":{
		"generator":"Khronos glTF Blender I/O v5.0.21",
		"version":"2.0"
	},
	"extensionsUsed":[
		"KHR_materials_specular"
	],
	"scene":0,
	"scenes":[
		{
			"name":"Scene",
			"nodes":[
				0
			]
		}
	],
	"nodes":[
		{
			"mesh":0,
			"name":"SPW_Urban_Bldg_13",
			"rotation":[
				0.7071068286895752,
				0,
				0,
				0.7071068286895752
			]
		}
	],
	"materials":[
		{
			"doubleSided":true,
			"extensions":{
				"KHR_materials_specular":{
					"specularColorFactor":[
						0.4000000059604645,
						0.4000000059604645,
						0.4000000059604645
					]
				}
			},
			"name":"SPW_Urban_Bldg_13",
			"pbrMetallicRoughness":{
				"baseColorTexture":{
					"index":0
				},
				"metallicFactor":0,
				"roughnessFactor":0.5527864098548889
			}
		}
	],
	"meshes":[
		{
			"name":"Cylinder.861",
			"primitives":[
				{
					"attributes":{
						"POSITION":0,
						"NORMAL":1,
						"TEXCOORD_0":2
					},
					"indices":3,
					"material":0
				}
			]
		}
	],
	"textures":[
		{
			"sampler":0,
			"source":0
		}
	],
	"images":[
		{
			"mimeType":"image/png",
			"name":"SPW_Urban_Bldg_13_Color01",
			"uri":"SPW_Urban_Bldg_13_Color01.png"
		}
	],
	"accessors":[
		{
			"bufferView":0,
			"componentType":5126,
			"count":1856,
			"max":[
				15.11514949798584,
				15.11514949798584,
				-1.4313395695353393e-06
			],
			"min":[
				-15.11514949798584,
				-15.11514949798584,
				-13.568987846374512
			],
			"type":"VEC3"
		},
		{
			"bufferView":1,
			"componentType":5126,
			"count":1856,
			"type":"VEC3"
		},
		{
			"bufferView":2,
			"componentType":5126,
			"count":1856,
			"type":"VEC2"
		},
		{
			"bufferView":3,
			"componentType":5123,
			"count":3240,
			"type":"SCALAR"
		}
	],
	"bufferViews":[
		{
			"buffer":0,
			"byteLength":22272,
			"byteOffset":0,
			"target":34962
		},
		{
			"buffer":0,
			"byteLength":22272,
			"byteOffset":22272,
			"target":34962
		},
		{
			"buffer":0,
			"byteLength":14848,
			"byteOffset":44544,
			"target":34962
		},
		{
			"buffer":0,
			"byteLength":6480,
			"byteOffset":59392,
			"target":34963
		}
	],
	"samplers":[
		{
			"magFilter":9729,
			"minFilter":9987
		}
	],
	"buffers":[
		{
			"byteLength":65872,
			"uri":"SPW_Urban_Bldg_13.bin"
		}
	]
}
