{
	"asset":{
		"generator":"Khronos glTF Blender I/O v5.0.21",
		"version":"2.0"
	},
	"extensionsUsed":[
		"KHR_materials_specular"
	],
	"scene":0,
	"scenes":[
		{
			"name":"Scene",
			"nodes":[
				0
			]
		}
	],
	"nodes":[
		{
			"mesh":0,
			"name":"SPW_Urban_Bldg_Shop_01",
			"rotation":[
				0.7071068286895752,
				0,
				0,
				0.7071068286895752
			]
		}
	],
	"materials":[
		{
			"doubleSided":true,
			"extensions":{
				"KHR_materials_specular":{
					"specularColorFactor":[
						0.4000000059604645,
						0.4000000059604645,
						0.4000000059604645
					]
				}
			},
			"name":"SPW_Urban_Bldg_Shop",
			"pbrMetallicRoughness":{
				"baseColorTexture":{
					"index":0
				},
				"metallicFactor":0,
				"roughnessFactor":0.5527864098548889
			}
		}
	],
	"meshes":[
		{
			"name":"Cube.787",
			"primitives":[
				{
					"attributes":{
						"POSITION":0,
						"NORMAL":1,
						"TEXCOORD_0":2
					},
					"indices":3,
					"material":0
				}
			]
		}
	],
	"textures":[
		{
			"sampler":0,
			"source":0
		}
	],
	"images":[
		{
			"mimeType":"image/png",
			"name":"SPW_Urban_Bldg_Shop_Color01",
			"uri":"SPW_Urban_Bldg_Shop_Color01.png"
		}
	],
	"accessors":[
		{
			"bufferView":0,
			"componentType":5126,
			"count":1552,
			"max":[
				5.30242395401001,
				4.760001182556152,
				5.674362455465598e-07
			],
			"min":[
				-5.3024210929870605,
				-5.716928482055664,
				-16.590730667114258
			],
			"type":"VEC3"
		},
		{
			"bufferView":1,
			"componentType":5126,
			"count":1552,
			"type":"VEC3"
		},
		{
			"bufferView":2,
			"componentType":5126,
			"count":1552,
			"type":"VEC2"
		},
		{
			"bufferView":3,
			"componentType":5123,
			"count":2328,
			"type":"SCALAR"
		}
	],
	"bufferViews":[
		{
			"buffer":0,
			"byteLength":18624,
			"byteOffset":0,
			"target":34962
		},
		{
			"buffer":0,
			"byteLength":18624,
			"byteOffset":18624,
			"target":34962
		},
		{
			"buffer":0,
			"byteLength":12416,
			"byteOffset":37248,
			"target":34962
		},
		{
			"buffer":0,
			"byteLength":4656,
			"byteOffset":49664,
			"target":34963
		}
	],
	"samplers":[
		{
			"magFilter":9729,
			"minFilter":9987
		}
	],
	"buffers":[
		{
			"byteLength":54320,
			"uri":"SPW_Urban_Bldg_Shop_01.bin"
		}
	]
}
